{"glyphs":{"0":{"ha":942,"x_min":0,"x_max":0,"o":"m 476 1389 l 471 1389 b 390 1382 443 1389 417 1386 b 35 953 183 1340 35 1165 l 35 436 b 390 7 35 225 183 47 l 390 719 b 415 782 390 732 396 782 b 432 769 424 782 428 778 l 442 774 l 390 893 l 390 1289 b 476 1378 390 1335 428 1381 z m 907 953 b 551 1382 907 1164 757 1342 l 551 668 b 526 606 551 656 546 606 b 510 618 518 606 513 610 l 500 614 l 551 494 l 551 100 b 465 11 551 53 514 10 l 465 0 l 471 0 b 551 7 497 0 525 3 b 897 349 726 43 863 172 b 907 436 904 378 907 407 z "},"1":{"ha":588,"x_min":0,"x_max":0,"o":"m 553 11 b 472 92 508 11 472 47 l 472 1389 l 461 1389 b 35 1221 461 1207 153 1221 l 35 1211 b 115 1129 79 1211 115 1174 l 115 92 b 35 11 115 47 79 11 l 35 0 l 553 0 z "},"2":{"ha":982,"x_min":0,"x_max":0,"o":"m 936 436 b 856 356 936 392 900 356 l 603 356 b 75 96 433 356 78 332 b 75 6 74 6 75 6 l 81 6 l 86 6 b 157 78 86 44 117 78 b 301 47 193 78 263 57 b 592 0 396 24 493 1 l 597 0 l 603 0 b 947 344 790 0 944 156 b 947 436 947 436 947 436 z m 392 1039 b 240 1190 392 1129 331 1190 b 171 1179 217 1190 194 1179 b 133 1217 151 1179 133 1196 b 143 1242 133 1226 138 1235 l 135 1249 b 38 1039 78 1190 38 1125 b 214 861 38 942 117 861 b 392 1039 313 861 392 942 z m 947 1006 b 883 1211 947 1081 929 1153 b 492 1389 792 1326 636 1389 l 492 1383 l 492 1378 b 688 1183 599 1378 688 1290 b 183 599 688 922 353 758 l 183 599 b 35 225 79 499 35 368 b 38 176 35 210 35 193 l 47 178 b 426 468 47 356 290 422 b 546 510 467 481 507 494 b 869 754 674 558 794 638 b 947 1006 918 828 947 917 z "},"3":{"ha":939,"x_min":0,"x_max":0,"o":"m 390 350 b 213 528 390 447 310 528 b 35 350 114 528 35 447 b 133 107 35 260 69 172 l 140 114 b 132 139 135 121 132 131 b 169 176 132 160 149 176 b 213 172 183 176 197 172 b 390 350 310 172 390 253 z m 390 1039 b 213 1217 390 1136 310 1217 b 169 1213 197 1217 183 1213 b 132 1250 149 1213 132 1229 b 140 1275 132 1258 135 1268 l 133 1282 b 35 1039 69 1217 35 1129 b 213 861 35 942 114 861 b 390 1039 310 861 390 942 z m 904 353 b 589 694 904 557 779 660 b 904 1036 779 729 904 832 b 560 1382 904 1254 761 1354 l 550 1383 b 471 1389 524 1388 497 1389 l 471 1378 b 549 1268 524 1376 549 1313 l 550 781 b 468 700 550 736 513 700 l 388 700 l 388 689 l 550 689 l 550 121 b 471 11 550 76 524 13 l 471 0 b 550 6 497 0 524 1 l 560 7 b 904 353 761 33 904 135 z "},"4":{"ha":828,"x_min":0,"x_max":0,"o":"m 828 6 l 828 11 b 747 92 783 11 747 47 l 747 763 l 736 763 b 392 596 736 611 504 589 l 392 436 b 311 356 392 392 356 356 l 311 350 l 311 344 l 392 344 l 392 90 b 311 11 392 46 356 11 l 311 6 l 311 0 l 736 0 b 828 0 828 0 828 0 z m 747 1065 b 518 1389 747 1190 665 1389 l 504 1389 b 535 1326 524 1371 535 1353 b 267 932 535 1217 339 1011 b 74 701 201 858 129 783 b 0 467 26 631 0 551 b 19 349 0 426 7 388 l 29 351 b 15 438 21 379 15 408 b 111 629 15 517 53 578 b 672 860 274 774 517 688 b 747 1065 724 917 747 989 z "},"5":{"ha":982,"x_min":0,"x_max":0,"o":"m 392 350 b 214 528 392 447 313 528 b 38 350 117 528 38 447 b 135 140 38 264 78 199 l 143 147 b 133 172 138 154 133 163 b 171 210 133 193 150 210 b 240 199 194 210 217 199 b 392 350 331 199 392 260 z m 947 383 b 869 635 947 472 918 561 b 546 879 794 751 674 831 b 426 921 507 894 467 908 b 47 1211 290 967 47 1033 l 38 1213 b 35 1164 35 1196 35 1179 b 183 790 35 1021 79 890 l 183 790 b 688 206 353 631 688 467 b 492 11 688 99 599 11 l 492 0 b 882 178 636 0 792 63 b 947 383 929 236 947 308 z m 947 1044 b 603 1389 947 1233 790 1386 l 597 1389 l 592 1389 b 301 1342 493 1389 396 1365 b 157 1311 263 1332 193 1311 b 86 1383 117 1311 86 1344 l 75 1383 l 75 1293 b 603 1033 75 1057 433 1033 l 856 1033 b 936 953 900 1033 936 997 l 947 953 z "},"6":{"ha":942,"x_min":0,"x_max":0,"o":"m 476 1389 l 471 1389 b 390 1382 443 1389 417 1386 b 35 953 183 1340 35 1165 l 35 436 b 390 7 35 226 185 47 l 390 1289 b 476 1378 390 1338 428 1378 z m 907 353 b 563 699 907 571 763 671 b 474 706 533 703 503 706 l 472 694 b 551 585 525 693 551 629 l 551 121 b 465 11 551 71 524 10 l 465 0 l 471 0 b 551 6 499 0 525 1 l 563 7 b 907 353 763 32 907 135 z m 907 1039 b 808 1282 907 1129 872 1217 l 800 1275 b 810 1250 807 1268 810 1258 b 772 1213 810 1229 793 1213 b 729 1217 758 1213 744 1217 b 551 1039 632 1217 551 1136 b 729 861 551 942 632 861 b 907 1039 826 861 907 942 z "},"7":{"ha":986,"x_min":0,"x_max":0,"o":"m 951 1138 b 944 1217 951 1163 950 1190 l 933 1217 b 858 1008 933 1135 917 1069 b 626 857 799 944 703 900 b 60 236 397 728 60 539 b 282 0 60 106 146 0 b 467 100 367 0 415 36 b 446 190 450 124 446 161 b 764 744 446 400 615 614 b 951 1138 881 846 951 981 z m 907 1383 l 896 1383 b 825 1311 896 1344 865 1311 b 681 1342 789 1311 719 1332 b 390 1389 586 1365 489 1388 l 385 1389 l 379 1389 b 35 1044 192 1389 38 1233 b 35 953 35 953 35 953 l 46 953 b 126 1033 46 997 82 1033 l 385 1033 b 907 1293 553 1033 907 1058 z "},"8":{"ha":938,"x_min":0,"x_max":0,"o":"m 471 694 l 471 700 l 390 700 l 390 1383 b 35 1036 186 1358 35 1260 b 350 694 35 832 161 729 b 35 353 161 660 35 557 b 390 6 35 129 186 31 l 390 608 b 471 689 390 653 426 689 z m 903 353 b 586 694 903 557 776 660 b 903 1036 776 729 903 832 b 558 1382 903 1254 758 1354 l 547 1383 b 468 1389 521 1388 494 1389 l 468 1378 b 547 1268 521 1376 547 1313 l 547 121 b 468 11 547 76 521 13 l 468 0 b 547 6 494 0 521 1 l 558 7 b 903 353 758 32 903 135 z "},"9":{"ha":872,"x_min":0,"x_max":0,"o":"m 356 350 b 178 528 356 447 275 528 b 0 350 79 528 0 447 b 99 107 0 260 35 172 l 106 114 b 97 139 100 121 97 131 b 135 176 97 160 114 176 b 178 172 149 176 163 172 b 356 350 275 172 356 253 z m 442 1389 l 436 1389 l 435 1389 l 436 1383 l 436 1378 l 442 1378 z m 433 1389 b 356 1383 407 1389 382 1388 l 344 1382 b 0 1036 143 1357 0 1254 b 344 690 0 818 144 717 l 356 689 b 433 683 382 685 407 683 l 433 694 b 356 804 381 696 356 760 l 356 1268 b 433 1378 356 1313 381 1376 l 433 1383 z m 872 953 b 517 1382 872 1163 722 1342 l 517 100 b 431 11 517 56 478 7 l 431 0 l 436 0 b 517 7 463 0 490 3 b 872 436 724 49 872 224 z "}," ":{"ha":347,"x_min":0,"x_max":0,"o":""},"!":{"ha":501,"x_min":0,"x_max":0,"o":"m 467 178 b 289 356 467 275 386 356 b 119 232 210 356 144 307 l 118 231 b 83 206 114 215 99 206 b 46 254 53 206 46 229 l 35 254 b 289 0 35 114 149 0 b 467 178 386 0 467 79 z m 467 1389 l 111 1389 l 111 419 b 281 496 160 468 211 496 l 289 496 b 467 674 386 499 467 576 z "},"\"":{"ha":854,"x_min":0,"x_max":0,"o":"m 35 1039 b 213 863 35 942 114 863 b 389 1039 310 863 389 942 b 213 1217 389 1138 310 1217 b 178 1213 200 1217 189 1215 b 169 1213 175 1213 172 1213 b 132 1250 149 1213 132 1229 b 139 1274 132 1258 135 1267 b 383 1378 201 1338 288 1378 l 383 1389 b 133 1282 286 1389 196 1347 b 35 1039 69 1217 35 1131 z m 642 863 b 819 1039 740 863 819 942 b 642 1217 819 1138 740 1217 b 607 1213 631 1217 618 1215 b 599 1213 604 1213 601 1213 b 561 1250 578 1213 561 1229 b 569 1274 561 1258 564 1267 b 814 1378 631 1338 718 1378 l 814 1389 b 563 1282 715 1389 626 1347 b 464 1039 500 1217 464 1131 b 642 863 464 942 544 863 z "},"$":{"ha":983,"x_min":0,"x_max":0,"o":"m 389 313 b 211 490 389 411 310 490 b 35 314 114 490 35 411 b 158 96 35 224 92 151 l 165 104 b 153 133 158 113 153 122 b 190 169 153 153 169 169 b 236 167 206 169 221 167 b 389 313 321 167 389 225 z m 947 375 b 793 682 947 482 878 617 l 497 914 l 497 1536 l 486 1536 l 486 922 l 358 1022 b 276 1182 307 1063 276 1114 b 446 1374 276 1279 350 1363 l 446 1385 b 36 1014 264 1363 36 1217 b 190 706 36 906 106 771 l 486 474 l 486 -146 l 497 -146 l 497 465 l 625 365 b 708 207 678 325 708 274 b 538 14 708 108 635 26 l 539 3 b 947 375 719 25 947 171 z m 949 1074 b 825 1292 949 1164 893 1236 l 818 1283 b 831 1256 826 1276 831 1265 b 793 1218 831 1235 814 1218 b 743 1221 776 1218 760 1221 b 596 1075 660 1221 596 1158 b 772 897 596 978 674 897 b 949 1074 869 897 949 976 z "},"&":{"ha":1368,"x_min":0,"x_max":0,"o":"m 851 169 b 483 11 754 64 626 11 b 411 15 460 11 435 13 b 240 208 314 28 240 110 b 324 367 240 275 271 326 l 561 551 b 851 169 661 428 756 297 z m 1368 506 b 1192 682 1368 603 1289 682 b 988 483 1081 682 1008 582 b 981 433 985 467 983 450 b 858 178 967 339 921 249 l 618 496 b 601 544 607 510 601 526 b 629 606 601 568 611 592 b 760 707 672 639 719 672 b 910 983 840 779 896 876 b 911 1014 910 993 911 1003 b 669 1333 911 1157 790 1275 b 431 1389 596 1369 514 1389 b 124 1292 322 1389 211 1356 b 0 1074 57 1240 0 1161 b 176 897 0 976 79 897 b 353 1075 275 897 353 978 b 206 1221 353 1158 288 1221 b 156 1217 189 1221 172 1217 b 118 1254 135 1217 118 1233 b 131 1282 118 1265 122 1275 b 431 1378 204 1346 336 1378 b 501 1374 454 1378 478 1376 b 672 1181 599 1360 672 1279 b 590 1022 672 1114 642 1063 l 156 683 b 1 375 71 617 1 482 b 243 54 1 232 122 114 b 482 0 317 19 400 0 b 858 161 628 0 760 54 b 947 38 871 144 947 50 b 896 11 947 15 913 11 l 896 0 l 1068 0 l 1068 11 b 950 57 1024 11 979 18 l 865 169 b 992 432 935 247 971 329 b 1028 463 994 450 1008 463 b 1083 401 1061 463 1068 424 b 1207 332 1111 361 1157 332 b 1368 506 1297 332 1368 419 z "},"(":{"ha":581,"x_min":0,"x_max":0,"o":"m 511 -89 b 425 1 463 -89 425 -47 l 425 1390 b 511 1479 425 1436 463 1481 l 511 1490 l 506 1490 b 425 1482 478 1490 451 1488 b 69 1054 218 1440 69 1265 l 69 336 b 425 -92 69 126 218 -51 b 500 -100 450 -97 475 -99 l 506 -100 l 511 -100 z "},")":{"ha":581,"x_min":0,"x_max":0,"o":"m 511 1056 b 156 1485 511 1267 363 1444 b 81 1492 131 1489 106 1492 l 75 1492 l 69 1492 l 69 1481 b 156 1392 118 1481 156 1440 l 156 1 b 69 -89 156 -46 118 -90 l 69 -100 l 75 -100 b 156 -92 101 -100 129 -97 b 511 336 363 -50 511 125 z "},"*":{"ha":376,"x_min":0,"x_max":0,"o":"m 342 1288 b 304 1319 342 1308 324 1319 b 249 1285 282 1319 261 1303 b 192 1222 233 1261 217 1239 b 218 1303 193 1251 204 1278 b 226 1340 224 1314 226 1326 b 189 1389 226 1363 214 1389 b 150 1340 164 1389 150 1363 b 160 1303 150 1326 154 1314 b 185 1222 172 1278 183 1251 b 128 1285 161 1239 143 1261 b 72 1319 117 1303 96 1319 b 35 1288 53 1319 35 1308 b 39 1269 35 1281 36 1275 b 99 1235 49 1247 75 1236 b 181 1217 128 1233 156 1229 b 99 1199 156 1203 128 1200 b 39 1163 75 1197 49 1186 b 35 1146 36 1157 35 1151 b 72 1113 35 1125 53 1113 b 128 1149 96 1113 117 1129 b 185 1210 143 1172 161 1194 b 160 1131 183 1181 172 1156 b 150 1093 154 1118 150 1106 b 189 1043 150 1071 164 1043 b 226 1093 214 1043 226 1071 b 218 1131 226 1106 224 1118 b 192 1210 204 1156 193 1181 b 249 1149 217 1194 233 1172 b 306 1113 261 1129 282 1113 b 342 1146 325 1113 342 1125 b 339 1163 342 1151 340 1157 b 278 1199 328 1186 301 1197 b 196 1217 250 1200 222 1203 b 278 1235 222 1229 250 1233 b 339 1269 301 1236 328 1247 b 342 1288 340 1275 342 1281 z "},",":{"ha":494,"x_min":0,"x_max":0,"o":"m 425 178 b 247 356 425 276 346 356 b 69 178 149 356 69 276 b 247 0 69 81 149 0 b 282 4 258 0 271 1 b 290 4 285 4 288 4 b 328 -33 311 4 328 -12 b 319 -57 328 -42 325 -50 b 75 -161 258 -121 171 -161 l 75 -172 b 326 -65 174 -172 263 -131 b 425 178 390 0 425 86 z "},"-":{"ha":399,"x_min":0,"x_max":0,"o":"m 35 594 l 364 594 l 364 636 l 35 636 z "},".":{"ha":493,"x_min":0,"x_max":0,"o":"m 424 178 b 247 356 424 275 344 356 b 69 178 149 356 69 275 b 247 0 69 79 149 0 b 424 178 344 0 424 79 z "},"/":{"ha":943,"x_min":0,"x_max":0,"o":"m 908 1383 l 899 1389 l 35 6 l 44 0 z "},":":{"ha":418,"x_min":0,"x_max":0,"o":"m 383 869 b 208 1044 383 967 306 1044 b 35 869 113 1044 35 967 b 208 696 35 774 113 696 b 383 869 306 696 383 774 z m 383 175 b 208 349 383 271 306 349 b 35 175 113 349 35 271 b 208 0 35 78 113 0 b 383 175 306 0 383 78 z "},";":{"ha":424,"x_min":0,"x_max":0,"o":"m 213 688 b 389 864 310 688 389 767 b 213 1042 389 963 310 1042 b 35 864 114 1042 35 963 b 213 688 35 767 114 688 z m 389 178 b 213 356 389 275 310 356 b 35 178 114 356 35 275 b 213 0 35 79 114 0 b 247 4 224 0 235 1 b 256 4 250 4 253 4 b 293 -33 276 4 293 -12 b 285 -56 293 -42 290 -50 b 40 -161 224 -121 136 -161 l 40 -172 b 292 -65 139 -172 228 -131 b 389 178 354 0 389 86 z "},"?":{"ha":1049,"x_min":0,"x_max":0,"o":"m 578 178 b 400 356 578 275 499 356 b 224 178 303 356 224 275 b 400 0 224 79 303 0 b 578 178 499 0 578 79 z m 425 1039 b 274 1190 425 1129 364 1190 b 204 1179 249 1190 226 1179 b 167 1217 183 1179 167 1196 b 175 1242 167 1226 169 1235 l 168 1249 b 69 1039 110 1190 69 1124 b 247 861 69 942 149 861 b 425 1039 344 861 425 942 z m 979 1004 b 915 1211 979 1079 963 1151 b 525 1389 825 1326 668 1389 l 525 1383 l 525 1378 b 719 1183 632 1378 719 1290 b 463 819 719 1001 597 913 b 315 703 411 783 358 749 b 183 329 224 603 183 464 b 185 296 183 318 183 307 l 194 296 b 582 590 194 476 444 544 b 693 628 619 601 657 614 b 979 1004 860 689 979 821 z "},"@":{"ha":1907,"x_min":0,"x_max":0,"o":"m 953 11 b 872 100 907 11 872 57 l 872 940 b 954 1029 872 985 908 1029 b 1033 1022 981 1029 1007 1028 l 1033 11 z m 1838 543 b 947 1383 1838 1025 1414 1383 b 69 500 463 1383 69 983 b 953 -383 69 13 464 -383 l 953 -372 b 81 500 471 -372 81 18 b 953 1372 81 982 471 1372 b 1826 543 1410 1372 1826 1014 b 1825 500 1826 529 1826 515 b 1583 50 1813 322 1743 144 b 1468 11 1550 31 1506 11 b 1388 92 1424 11 1388 47 l 1388 525 l 1388 606 b 1033 1033 1388 813 1238 996 b 947 1040 1004 1039 976 1040 b 872 1033 922 1040 897 1038 b 618 883 772 1014 682 963 b 518 435 500 739 518 607 b 872 7 518 226 665 49 b 953 0 899 3 926 0 l 1468 0 b 1682 115 1543 0 1631 65 b 1838 543 1792 226 1838 390 z "},"A":{"ha":982,"x_min":0,"x_max":0,"o":"m 256 401 b 244 482 247 428 244 454 b 257 569 244 511 249 540 l 246 572 l 111 121 b 0 11 94 67 64 11 l 0 0 l 375 0 z m 982 11 b 871 121 918 11 888 67 l 490 1389 l 308 779 l 542 0 l 982 0 z "},"B":{"ha":988,"x_min":0,"x_max":0,"o":"m 436 1389 l 0 1389 l 0 1378 b 81 1297 44 1378 81 1342 l 81 92 b 0 11 81 47 44 11 l 0 0 l 436 0 z m 953 353 b 638 694 953 557 828 660 b 953 1036 828 729 953 832 b 608 1382 953 1254 810 1354 b 519 1389 579 1386 549 1389 l 519 1378 b 597 1268 572 1376 597 1313 l 597 781 b 517 700 597 736 561 700 l 517 689 l 597 689 l 597 121 b 519 11 597 76 572 13 l 519 0 b 597 6 546 0 571 1 l 608 7 b 953 353 810 33 953 135 z "},"C":{"ha":899,"x_min":0,"x_max":0,"o":"m 864 286 b 707 442 864 372 793 442 b 551 286 621 442 551 371 l 551 100 b 465 11 551 51 514 11 l 465 0 l 471 0 b 551 7 497 0 525 3 l 563 10 b 840 204 675 32 779 106 b 864 286 856 229 864 256 z m 390 1382 b 35 953 185 1343 35 1161 l 35 436 b 390 7 35 228 185 46 z m 864 1103 b 840 1185 864 1133 856 1160 b 563 1379 778 1285 676 1356 l 551 1382 b 465 1389 524 1388 494 1389 l 465 1378 b 551 1289 514 1378 551 1338 l 551 1103 b 707 947 551 1018 621 947 b 864 1103 793 947 864 1017 z "},"D":{"ha":1022,"x_min":0,"x_max":0,"o":"m 436 1389 l 0 1389 l 0 1378 b 81 1297 44 1378 81 1342 l 81 92 b 0 11 81 47 44 11 l 0 0 l 436 0 z m 953 953 b 597 1382 953 1164 804 1340 b 511 1389 569 1388 540 1389 l 511 1378 b 597 1289 560 1378 597 1338 l 597 100 b 511 11 597 51 560 11 l 511 0 l 517 0 b 597 7 544 0 571 3 b 953 436 804 49 953 224 z "},"E":{"ha":911,"x_min":0,"x_max":0,"o":"m 876 342 l 871 342 b 853 340 864 342 858 342 b 524 0 685 301 556 169 l 876 0 z m 436 1389 l 0 1389 l 0 1378 b 81 1297 44 1378 81 1342 l 81 92 b 0 11 81 47 44 11 l 0 0 l 436 0 z m 876 694 b 724 846 876 778 807 846 b 517 763 646 846 572 817 l 524 754 b 544 763 529 760 538 763 b 575 731 561 763 575 749 b 572 694 575 719 572 707 b 724 543 572 611 640 543 b 876 694 807 543 876 611 z m 876 1389 l 524 1389 b 853 1049 556 1219 685 1088 b 876 1047 861 1047 868 1047 z "},"F":{"ha":911,"x_min":0,"x_max":0,"o":"m 517 11 b 436 92 472 11 436 47 l 436 1389 l 0 1389 l 0 1378 b 81 1297 44 1378 81 1342 l 81 92 b 0 11 81 47 44 11 l 0 0 l 517 0 z m 876 694 b 724 846 876 778 807 846 b 517 763 646 846 572 817 l 524 754 b 544 763 529 760 538 763 b 575 731 561 763 575 749 b 572 694 575 719 572 707 b 724 543 572 611 640 543 b 876 694 807 543 876 611 z m 876 1389 l 524 1389 b 853 1049 556 1219 685 1088 b 876 1047 861 1047 868 1047 z "},"G":{"ha":1022,"x_min":0,"x_max":0,"o":"m 476 1389 l 471 1389 b 390 1382 443 1389 417 1386 b 35 953 183 1340 35 1165 l 35 436 b 390 7 35 226 185 47 l 390 1289 b 476 1378 390 1338 428 1378 z m 988 700 l 471 700 l 471 689 b 551 608 515 689 551 653 l 551 100 b 465 11 551 51 514 11 l 465 0 l 569 0 b 765 69 644 0 706 26 b 815 86 781 81 797 86 b 896 6 860 86 896 50 l 907 6 l 907 608 b 988 689 907 653 943 689 z m 907 1039 b 808 1282 907 1129 872 1217 l 800 1275 b 810 1250 807 1268 810 1258 b 772 1213 810 1229 793 1213 b 729 1217 758 1213 744 1217 b 551 1039 632 1217 551 1136 b 729 861 551 942 632 861 b 907 1039 826 861 907 942 z "},"H":{"ha":1033,"x_min":0,"x_max":0,"o":"m 517 11 b 436 92 472 11 436 47 l 436 608 b 517 689 436 653 472 689 l 517 700 l 436 700 l 436 1389 l 0 1389 l 0 1378 b 81 1297 44 1378 81 1342 l 81 92 b 0 11 81 47 44 11 l 0 0 l 517 0 z m 1033 11 b 953 92 989 11 953 47 l 953 1297 b 1033 1378 953 1342 989 1378 l 1033 1389 l 597 1389 l 597 0 l 1033 0 z "},"I":{"ha":517,"x_min":0,"x_max":0,"o":"m 517 11 b 436 92 472 11 436 47 l 436 1297 b 517 1378 436 1342 472 1378 l 517 1389 l 0 1389 l 0 1378 b 81 1297 44 1378 81 1342 l 81 92 b 0 11 81 47 44 11 l 0 0 l 517 0 z "},"J":{"ha":943,"x_min":0,"x_max":0,"o":"m 390 350 b 213 528 390 447 310 528 b 35 350 114 528 35 447 b 133 107 35 260 69 172 l 140 114 b 132 139 135 121 132 131 b 169 176 132 160 149 176 b 213 172 183 176 197 172 b 390 350 310 172 390 253 z m 943 1389 l 425 1389 l 425 1378 b 507 1297 469 1378 507 1342 l 507 92 b 425 11 507 47 469 11 l 425 0 l 517 0 b 861 344 706 0 861 156 b 861 1297 864 1297 861 1297 b 943 1378 861 1342 899 1378 z "},"K":{"ha":1033,"x_min":0,"x_max":0,"o":"m 517 11 b 436 92 472 11 436 47 l 436 608 b 517 689 436 653 472 689 l 517 700 l 436 700 l 436 1389 l 0 1389 l 0 1378 b 81 1297 44 1378 81 1342 l 81 92 b 0 11 81 47 44 11 l 0 0 l 517 0 z m 1033 11 b 953 92 989 11 953 47 l 953 272 b 626 694 953 471 818 644 b 953 1117 818 744 953 918 l 953 1297 b 1033 1378 953 1342 989 1378 l 1033 1389 l 597 1389 l 597 0 l 1033 0 z "},"L":{"ha":876,"x_min":0,"x_max":0,"o":"m 876 342 l 871 342 b 853 340 864 342 858 342 b 524 0 685 301 556 169 l 876 0 z m 436 1389 l 0 1389 l 0 1378 b 81 1297 44 1378 81 1342 l 81 92 b 0 11 81 47 44 11 l 0 0 l 436 0 z "},"M":{"ha":1439,"x_min":0,"x_max":0,"o":"m 181 401 b 169 482 172 428 169 454 b 182 569 169 511 174 540 l 172 572 l 0 0 l 301 0 z m 907 11 b 797 121 842 11 814 67 b 713 401 711 401 713 401 b 701 482 704 428 701 454 b 714 569 701 511 704 542 l 704 572 l 682 501 l 417 1389 b 233 779 356 1186 294 982 l 467 0 l 907 0 z m 1439 11 b 1329 121 1375 11 1344 67 b 949 1389 949 1389 949 1389 l 765 779 l 999 0 l 1439 0 z "},"N":{"ha":1054,"x_min":0,"x_max":0,"o":"m 124 806 b 92 1014 96 882 92 933 l 81 1014 l 81 92 b 0 11 81 47 44 11 l 0 0 l 419 0 z m 460 1389 l 0 1389 l 0 1378 b 107 1311 46 1378 90 1357 l 599 0 l 976 0 z m 1054 1389 l 635 1389 l 931 585 b 963 375 958 508 963 456 l 974 375 l 974 1297 b 1054 1378 974 1342 1010 1378 z "},"O":{"ha":942,"x_min":0,"x_max":0,"o":"m 476 1389 l 471 1389 b 390 1382 443 1389 417 1386 b 35 953 183 1340 35 1165 l 35 436 b 390 7 35 226 185 47 l 390 1289 b 476 1378 390 1338 428 1378 z m 907 953 b 551 1382 907 1164 757 1342 l 551 100 b 465 11 551 54 514 10 l 465 0 l 471 0 b 551 7 497 0 525 3 b 897 349 726 43 863 174 b 907 436 904 378 907 407 z "},"P":{"ha":953,"x_min":0,"x_max":0,"o":"m 517 11 b 436 92 472 11 436 47 l 436 1389 l 0 1389 l 0 1378 b 81 1297 44 1378 81 1342 l 81 92 b 0 11 81 47 44 11 l 0 0 l 517 0 z m 953 953 b 597 1382 953 1164 804 1340 b 517 1389 571 1386 543 1389 l 517 1378 b 597 1289 563 1378 597 1332 l 597 444 b 511 356 597 399 560 353 l 511 344 l 517 344 b 597 351 544 344 571 347 b 953 781 804 393 953 568 z "},"Q":{"ha":946,"x_min":0,"x_max":0,"o":"m 1251 -503 b 907 -158 1251 -310 1097 -160 l 896 -158 l 471 -158 b 390 -78 426 -158 390 -122 l 379 -78 l 379 -169 b 724 -514 379 -361 536 -512 l 735 -514 l 1160 -514 b 1240 -594 1204 -514 1240 -550 l 1251 -594 z m 476 1389 l 471 1389 b 390 1381 443 1389 417 1386 b 35 953 183 1339 35 1165 l 35 436 b 390 7 35 226 185 47 l 390 1289 b 476 1378 390 1336 428 1376 z m 907 953 b 551 1381 907 1164 758 1340 l 551 100 b 465 11 551 54 514 10 l 465 0 l 471 0 b 551 7 497 0 525 3 b 899 349 726 43 863 174 b 907 436 904 378 907 407 z "},"R":{"ha":1033,"x_min":0,"x_max":0,"o":"m 517 11 b 436 92 472 11 436 47 l 436 608 b 517 689 436 653 472 689 l 517 700 l 436 700 l 436 1389 l 0 1389 l 0 1378 b 81 1297 44 1378 81 1342 l 81 92 b 0 11 81 47 44 11 l 0 0 l 517 0 z m 1033 11 b 953 92 989 11 953 47 l 953 272 b 631 693 953 469 821 642 b 953 1036 824 726 953 829 b 608 1382 953 1254 808 1354 b 519 1389 579 1386 549 1389 l 519 1378 b 597 1268 572 1376 597 1313 l 597 701 l 597 0 l 1033 0 z "},"S":{"ha":979,"x_min":0,"x_max":0,"o":"m 390 350 b 213 528 390 447 310 528 b 35 350 114 528 35 447 b 133 140 35 264 75 199 l 140 147 b 132 172 135 154 132 163 b 169 210 132 193 149 210 b 239 199 192 210 214 199 b 390 350 329 199 390 260 z m 944 350 b 822 651 944 457 899 575 l 375 1099 b 326 1215 344 1129 326 1169 b 490 1378 326 1304 400 1378 l 490 1389 b 74 1031 286 1389 74 1251 b 181 790 74 935 115 857 l 621 350 b 685 206 664 307 685 268 b 490 11 685 99 597 11 l 490 0 b 843 136 618 0 749 49 b 944 350 901 192 944 268 z m 906 1389 l 538 1389 l 538 1378 l 906 1067 z "},"T":{"ha":1304,"x_min":0,"x_max":0,"o":"m 911 11 b 829 92 867 11 829 47 l 829 1389 l 475 1389 l 475 92 b 394 11 475 47 439 11 l 394 0 l 911 0 z m 35 1389 l 35 1047 l 40 1047 b 58 1049 46 1047 51 1047 b 386 1389 225 1088 354 1219 z m 1269 1389 l 918 1389 b 1247 1049 950 1219 1079 1088 b 1269 1047 1254 1047 1263 1047 z "},"U":{"ha":1033,"x_min":0,"x_max":0,"o":"m 522 11 b 436 100 474 11 436 51 l 436 1389 l 0 1389 l 0 1378 b 81 1297 44 1378 81 1342 l 81 436 b 436 7 81 224 229 49 b 522 0 464 1 493 0 z m 1033 1389 l 517 1389 l 517 1378 b 597 1297 561 1378 597 1342 l 597 7 b 953 436 803 47 953 226 l 953 1297 b 1033 1378 953 1342 989 1378 z "},"V":{"ha":982,"x_min":0,"x_max":0,"o":"m 440 1389 l 0 1389 l 0 1378 b 111 1268 64 1378 94 1322 b 492 0 490 0 492 0 l 674 610 z m 982 1389 l 607 1389 l 726 988 b 738 904 735 961 738 932 b 725 819 738 876 733 847 l 736 817 l 871 1268 b 982 1378 888 1322 918 1378 z "},"W":{"ha":1474,"x_min":0,"x_max":0,"o":"m 440 1389 l 0 1389 l 0 1378 b 111 1268 64 1378 94 1322 b 492 0 490 0 492 0 l 674 610 z m 972 1389 l 532 1389 l 532 1378 b 643 1268 596 1378 626 1322 b 726 988 726 988 726 988 b 738 907 735 961 738 935 b 725 819 738 878 733 849 l 736 817 b 757 888 743 840 750 864 l 1024 0 l 1206 610 z m 1139 1389 l 1258 988 b 1269 906 1267 961 1269 932 b 1257 819 1269 876 1265 847 l 1268 817 b 1289 888 1274 840 1282 864 l 1439 1389 z "},"X":{"ha":1063,"x_min":0,"x_max":0,"o":"m 332 258 b 325 304 326 272 325 289 b 357 415 325 343 336 383 l 347 421 b 153 119 286 319 218 219 b 0 11 124 74 57 11 l 0 0 l 417 0 z m 1063 11 b 938 122 1010 11 954 78 l 507 1272 b 499 1317 501 1286 499 1301 b 544 1378 499 1346 511 1378 l 544 1389 l 4 1389 l 4 1378 b 128 1267 56 1378 111 1311 l 560 118 b 568 72 564 103 568 88 b 521 11 568 43 556 11 l 521 0 l 1063 0 z m 1063 1389 l 644 1389 l 731 1131 b 736 1085 735 1117 736 1100 b 706 974 736 1046 726 1006 l 714 968 b 908 1269 776 1069 844 1169 b 1063 1378 938 1315 1004 1378 z "},"Y":{"ha":992,"x_min":0,"x_max":0,"o":"m 761 11 b 681 92 717 11 681 47 l 681 433 b 681 603 681 499 692 538 b 601 865 661 708 632 763 l 444 1389 l 0 1389 l 0 1378 b 111 1267 65 1378 96 1322 b 325 557 126 1221 325 558 l 325 92 b 244 11 325 47 289 11 l 244 0 l 761 0 z m 992 1389 l 613 1389 l 733 983 b 744 901 742 957 744 929 b 732 814 744 872 742 843 l 743 811 l 879 1267 b 992 1378 896 1322 926 1378 z "},"Z":{"ha":1007,"x_min":0,"x_max":0,"o":"m 969 369 l 965 369 b 601 0 760 369 601 203 l 969 0 z m 510 1389 l 510 1378 b 563 1328 540 1378 563 1358 b 557 1300 563 1318 560 1308 l 35 0 l 497 0 l 497 11 b 444 60 467 11 444 29 b 451 89 444 69 447 81 l 972 1389 z m 38 1389 l 38 1019 l 43 1019 b 407 1389 249 1019 407 1186 z "},"[":{"ha":436,"x_min":0,"x_max":0,"o":"m 436 11 b 356 92 392 11 356 47 l 356 1297 b 436 1378 356 1342 392 1378 l 436 1389 l 0 1389 l 0 0 l 436 0 z "},"\\":{"ha":874,"x_min":0,"x_max":0,"o":"m 874 6 l 10 1389 l 0 1383 l 864 0 z "},"]":{"ha":436,"x_min":0,"x_max":0,"o":"m 436 1389 l 0 1389 l 0 1378 b 81 1297 44 1378 81 1342 l 81 92 b 0 11 81 47 44 11 l 0 0 l 436 0 z "},"a":{"ha":988,"x_min":0,"x_max":0,"o":"m 468 11 b 390 92 425 13 390 47 l 390 436 b 465 529 390 479 425 517 l 461 539 b 383 524 436 532 410 526 b 35 264 229 507 35 456 b 390 4 35 69 233 19 b 468 0 415 1 442 0 l 468 11 z m 390 757 b 265 926 390 838 342 903 l 265 926 b 239 963 249 933 239 943 b 261 997 239 978 247 990 l 257 1007 b 35 758 156 968 36 876 l 35 757 b 213 579 33 658 114 579 b 390 757 310 579 390 658 z m 988 11 b 907 92 943 11 907 47 l 907 697 l 907 703 b 799 929 906 782 858 875 b 482 1044 718 1003 592 1044 l 482 1033 b 697 863 603 1033 676 982 b 701 819 700 849 701 833 b 551 575 701 717 639 624 l 551 0 l 988 0 z "},"b":{"ha":988,"x_min":0,"x_max":0,"o":"m 436 1389 l 0 1389 l 0 1378 b 81 1297 44 1378 81 1342 l 81 0 l 436 0 z m 953 608 b 597 1038 953 819 804 996 b 511 1044 569 1043 540 1044 l 511 1033 b 597 944 560 1033 597 993 l 597 100 b 511 11 597 51 560 11 l 511 0 l 517 0 b 597 7 544 0 571 3 b 953 436 804 49 953 224 z "},"c":{"ha":938,"x_min":0,"x_max":0,"o":"m 474 11 b 389 100 425 11 389 51 l 389 943 b 474 1032 389 990 426 1033 l 474 1043 l 468 1043 b 389 1036 442 1043 415 1040 l 378 1033 b 35 613 179 994 35 814 l 35 431 b 378 10 35 229 181 51 b 389 8 389 8 389 8 b 468 0 415 3 442 0 l 474 0 z m 903 286 b 726 464 903 383 824 464 b 549 286 628 464 549 383 b 674 118 549 206 597 140 l 674 118 b 700 82 689 110 700 101 b 676 47 700 67 690 53 l 681 38 b 818 122 732 57 779 85 l 821 122 l 821 125 b 903 286 861 164 903 228 z m 903 757 b 821 918 903 815 861 879 l 821 922 l 818 922 b 681 1006 779 960 732 988 l 676 996 b 700 961 690 990 700 976 b 674 926 700 942 689 933 l 674 925 b 549 757 597 903 549 838 b 726 581 549 660 628 581 b 903 757 824 581 903 660 z "},"d":{"ha":988,"x_min":0,"x_max":0,"o":"m 476 11 b 390 100 428 11 390 51 l 390 944 b 476 1033 390 993 428 1033 l 476 1044 l 471 1044 b 390 1038 443 1044 417 1042 b 35 608 183 996 35 821 l 35 436 b 390 7 35 225 183 49 b 476 0 418 1 447 0 z m 988 11 b 907 92 943 11 907 47 l 907 1389 l 471 1389 l 471 1378 b 551 1297 515 1378 551 1342 l 551 0 l 988 0 z "},"e":{"ha":939,"x_min":0,"x_max":0,"o":"m 469 11 b 389 101 425 13 389 58 l 389 1036 b 35 608 183 996 35 818 l 35 438 b 378 11 35 228 178 58 b 389 8 389 8 389 8 l 389 10 b 469 0 415 4 442 3 l 469 11 z m 901 294 b 724 465 901 389 817 465 b 547 289 626 465 547 386 b 686 115 547 203 604 132 l 688 115 b 717 78 704 110 717 97 b 697 44 717 64 710 51 l 701 35 b 831 132 750 58 796 92 l 833 132 l 833 136 b 901 294 869 178 901 238 z m 904 608 b 550 1036 904 819 757 994 b 469 1043 524 1040 497 1043 l 465 1043 l 464 1032 b 550 943 514 1032 550 992 l 550 639 b 469 560 550 594 514 560 l 469 549 l 904 544 z "},"f":{"ha":988,"x_min":0,"x_max":0,"o":"m 522 1389 l 517 1389 b 436 1382 490 1389 463 1386 b 81 953 229 1340 81 1165 l 81 775 l 81 92 b 0 11 81 47 44 11 l 0 0 l 517 0 l 517 11 b 436 92 472 11 436 47 l 436 1289 b 522 1378 436 1338 474 1378 z m 875 481 b 724 632 875 564 807 632 b 517 549 646 632 572 603 l 524 540 b 544 549 529 546 536 549 b 575 517 561 549 575 535 b 572 481 575 506 572 493 b 724 329 572 397 640 329 b 875 481 807 329 875 397 z m 953 1039 b 854 1282 953 1129 918 1217 l 847 1275 b 856 1250 853 1268 856 1258 b 818 1213 856 1229 839 1213 b 775 1217 804 1213 790 1217 b 597 1039 678 1217 597 1136 b 775 861 597 942 678 861 b 953 1039 874 861 953 942 z "},"g":{"ha":960,"x_min":0,"x_max":0,"o":"m 786 -200 b 785 -196 786 -199 786 -197 b 569 -107 735 -139 643 -107 b 326 -229 475 -107 382 -153 l 218 -379 l 139 -489 b 86 -514 126 -506 107 -514 b 44 -489 69 -514 53 -504 l 35 -494 b 93 -568 51 -522 71 -547 b 339 -667 160 -632 247 -667 b 521 -564 418 -667 475 -625 b 786 -200 540 -537 786 -203 z m 913 -661 b 875 -367 913 -562 901 -462 b 843 -286 868 -339 856 -311 l 833 -290 b 842 -339 840 -306 842 -322 b 815 -433 842 -369 835 -408 l 644 -667 l 913 -667 z m 483 11 b 397 100 435 11 397 51 l 397 942 b 483 1031 397 989 435 1031 l 483 1042 l 478 1042 b 397 1033 451 1042 424 1039 l 397 1035 b 285 996 358 1024 322 1014 b 43 614 142 926 43 772 l 43 431 b 188 111 43 310 97 193 b 232 76 192 108 229 76 l 233 75 l 233 72 l 238 72 b 250 44 244 65 250 56 b 224 8 250 29 239 14 l 226 -1 b 329 15 260 10 294 15 b 397 7 353 15 375 13 l 397 7 b 478 0 424 3 451 0 l 483 0 z m 913 894 b 744 950 849 894 796 911 b 558 1033 688 992 628 1021 l 558 7 b 913 435 764 46 913 225 z m 1078 1211 b 900 1389 1078 1310 997 1389 b 647 1151 767 1389 656 1285 l 658 1151 b 696 1183 661 1169 676 1183 b 732 1157 713 1183 726 1174 b 900 1035 756 1082 821 1035 b 1078 1211 997 1035 1078 1114 z "},"h":{"ha":1033,"x_min":0,"x_max":0,"o":"m 517 11 b 436 92 472 11 436 47 l 436 953 b 517 1033 436 997 472 1033 l 517 1044 l 436 1044 l 436 1389 l 0 1389 l 0 1378 b 81 1297 44 1378 81 1342 l 81 92 b 0 11 81 47 44 11 l 0 0 l 517 0 z m 1033 11 b 953 92 989 11 953 47 l 953 608 b 597 1038 953 818 803 997 l 597 0 l 1033 0 z "},"i":{"ha":517,"x_min":0,"x_max":0,"o":"m 517 11 b 436 92 472 11 436 47 l 436 893 l 0 893 l 0 882 b 81 801 44 882 81 846 l 81 92 b 0 11 81 47 44 11 l 0 0 l 517 0 z m 436 1211 b 258 1389 436 1310 357 1389 b 81 1211 161 1389 81 1310 b 258 1033 81 1114 161 1033 b 436 1211 357 1033 436 1114 z "},"j":{"ha":468,"x_min":0,"x_max":0,"o":"m -36 -321 b -212 -143 -36 -222 -115 -143 b -389 -321 -310 -143 -389 -222 b -292 -562 -389 -410 -354 -497 l -283 -554 b -293 -531 -289 -547 -293 -539 b -256 -493 -293 -510 -275 -493 b -212 -497 -240 -493 -226 -497 b -36 -321 -115 -497 -36 -418 z m 0 892 l 0 881 b 81 800 44 881 81 844 l 81 -578 b 0 -657 81 -621 44 -657 l 0 -668 l 90 -668 b 433 -325 275 -668 433 -510 l 433 892 z m 433 1213 b 257 1389 433 1310 354 1389 b 81 1213 160 1389 81 1310 b 257 1036 81 1115 160 1036 b 433 1213 354 1036 433 1115 z "},"k":{"ha":1033,"x_min":0,"x_max":0,"o":"m 517 11 b 436 92 472 11 436 47 l 436 1389 l 0 1389 l 0 1378 b 81 1297 44 1378 81 1342 l 81 92 b 0 11 81 47 44 11 l 0 0 l 517 0 z m 1033 11 b 953 92 989 11 953 47 l 953 272 b 614 697 953 475 813 653 l 975 1044 l 597 1044 l 597 697 l 529 631 l 536 622 b 560 631 543 628 551 631 b 597 593 581 631 597 614 l 597 0 l 1033 0 z "},"l":{"ha":517,"x_min":0,"x_max":0,"o":"m 517 11 b 436 92 472 11 436 47 l 436 1389 l 0 1389 l 0 1378 b 81 1297 44 1378 81 1342 l 81 92 b 0 11 81 47 44 11 l 0 0 l 517 0 l 517 11 z "},"m":{"ha":1553,"x_min":0,"x_max":0,"o":"m 518 11 b 436 92 474 11 436 47 l 436 1043 l 0 1043 l 0 1032 b 81 951 44 1032 81 996 l 81 92 b 0 11 81 47 44 11 l 0 0 l 518 0 z m 1035 11 b 954 92 990 11 954 47 l 954 1043 l 518 1043 l 518 1032 b 599 951 563 1032 599 996 l 599 0 l 1035 0 z m 1553 11 b 1472 92 1508 11 1472 47 l 1472 606 b 1126 1033 1472 811 1328 993 l 1117 1036 b 1035 1043 1089 1040 1063 1043 l 1029 1043 l 1029 1032 b 1117 943 1079 1032 1117 990 l 1117 0 l 1553 0 z "},"n":{"ha":1032,"x_min":0,"x_max":0,"o":"m 517 11 b 436 92 472 11 436 47 l 436 1043 l 0 1043 l 0 1032 b 81 951 44 1032 81 996 l 81 92 b 0 11 81 47 44 11 l 0 0 l 517 0 z m 1032 11 b 951 92 988 11 951 47 l 951 607 b 608 1033 951 813 808 993 l 597 1036 b 517 1043 571 1042 543 1043 l 511 1043 l 511 1032 b 597 943 560 1032 597 992 l 597 0 l 1032 0 z "},"o":{"ha":940,"x_min":0,"x_max":0,"o":"m 475 1043 l 469 1043 b 389 1036 443 1043 417 1040 l 379 1033 b 35 607 178 994 35 813 l 35 435 b 389 7 35 226 183 47 l 389 943 b 475 1032 389 992 426 1032 z m 906 607 b 550 1036 906 818 757 996 l 550 100 b 465 11 550 53 513 10 l 465 0 l 469 0 b 550 7 497 0 524 3 l 561 10 b 897 349 731 43 863 179 b 906 435 903 376 906 406 z "},"p":{"ha":988,"x_min":0,"x_max":0,"o":"m 517 -335 b 436 -254 472 -335 436 -299 l 436 1043 l 0 1043 l 0 1032 b 81 951 44 1032 81 996 l 81 -254 b 0 -335 81 -299 44 -335 l 0 -346 l 517 -346 z m 953 607 b 597 1036 953 818 804 994 b 517 1043 571 1040 543 1043 l 517 1032 b 597 943 563 1032 597 986 l 597 100 b 511 11 597 51 560 11 l 511 0 l 517 0 b 597 7 544 0 571 3 b 953 436 804 49 953 224 z "},"q":{"ha":988,"x_min":0,"x_max":0,"o":"m 476 11 b 390 100 428 11 390 51 l 390 943 b 471 1032 390 986 425 1032 l 471 1043 b 390 1036 444 1043 417 1040 b 35 607 183 994 35 818 l 35 436 b 390 7 35 224 183 49 b 471 0 417 3 443 0 l 476 0 l 476 11 z m 988 -335 b 907 -254 943 -335 907 -299 l 907 951 b 988 1032 907 996 943 1032 l 988 1043 l 551 1043 l 551 -254 b 471 -335 551 -299 515 -335 l 471 -346 l 988 -346 z "},"r":{"ha":956,"x_min":0,"x_max":0,"o":"m 518 11 b 438 92 474 11 438 47 l 438 1043 l 0 1043 l 0 1032 b 81 951 44 1032 81 996 l 81 92 b 0 11 81 47 44 11 l 0 0 l 518 0 z m 956 869 b 778 1047 956 967 876 1047 b 533 949 686 1047 600 1013 l 542 940 b 567 950 549 947 557 950 b 604 913 586 950 604 933 b 600 869 604 899 600 883 b 778 690 600 771 679 690 b 956 869 876 690 956 771 z "},"s":{"ha":975,"x_min":0,"x_max":0,"o":"m 388 307 b 211 463 388 400 300 463 b 35 307 124 463 35 400 b 175 90 35 213 97 136 l 183 96 b 169 122 175 103 169 111 b 207 154 169 142 189 154 b 242 151 218 154 231 151 b 388 307 331 151 388 221 z m 940 344 b 747 660 940 485 857 582 b 440 875 647 731 540 804 b 382 956 408 897 382 910 b 481 1032 382 1015 429 1032 l 481 1043 b 242 1011 396 1043 322 1042 b 74 807 153 979 74 907 b 193 617 74 721 126 664 l 669 282 b 717 182 703 260 717 221 b 486 11 717 68 583 13 l 488 0 b 825 114 603 1 736 39 b 940 344 886 167 940 264 z m 888 1043 l 519 1043 l 519 1032 l 888 800 z "},"t":{"ha":593,"x_min":0,"x_max":0,"o":"m 593 11 l 507 11 b 426 92 463 11 426 47 l 426 1032 l 593 1032 l 593 1043 l 426 1043 l 426 1389 l 415 1389 b 69 1043 415 1196 260 1043 l 69 346 b 415 0 69 157 226 1 b 593 0 593 -1 593 0 z "},"u":{"ha":1032,"x_min":0,"x_max":0,"o":"m 522 11 b 436 100 474 11 436 51 l 436 1043 l 0 1043 l 0 1032 b 81 951 44 1032 81 996 l 81 436 b 425 10 81 231 224 53 b 436 7 436 7 436 7 b 517 0 463 1 489 0 l 522 0 z m 1032 11 b 951 92 989 11 951 47 l 951 951 b 1032 1032 951 996 989 1032 l 1032 1043 l 517 1043 l 517 1032 b 597 951 561 1032 597 996 l 597 0 l 1032 0 z "},"v":{"ha":1025,"x_min":0,"x_max":0,"o":"m 458 1043 l 0 1043 l 0 1032 b 117 950 49 1032 97 994 l 513 0 l 703 457 z m 1025 1043 l 632 1043 l 760 739 b 769 676 767 722 769 694 b 758 615 769 656 765 635 l 768 611 b 908 950 768 611 768 611 b 1025 1032 926 993 976 1032 z "},"w":{"ha":1493,"x_min":0,"x_max":0,"o":"m 431 1043 l 0 1043 l 0 1032 b 115 950 49 1032 97 994 b 511 0 514 1 511 0 l 688 424 z m 942 1043 l 513 1043 l 513 1032 b 628 950 560 1032 610 993 b 731 703 732 703 731 703 b 744 631 740 679 744 654 b 729 550 744 603 740 575 l 739 546 l 768 614 l 1024 0 l 1200 424 z m 1024 1043 l 1024 1032 b 1139 950 1072 1032 1121 993 l 1139 950 l 1243 703 b 1256 631 1253 679 1256 654 b 1242 550 1256 603 1251 575 l 1251 546 l 1458 1043 z "},"x":{"ha":1074,"x_min":0,"x_max":0,"o":"m 328 183 b 319 219 322 194 319 207 b 351 300 319 249 332 278 l 343 308 l 157 94 b 0 11 125 58 50 11 l 0 0 l 419 0 z m 1074 11 b 950 93 1028 11 969 53 l 519 956 b 511 988 514 965 511 976 b 558 1032 511 1015 531 1032 l 558 1043 l 0 1043 l 0 1032 b 124 950 46 1032 104 990 l 554 88 b 563 56 560 78 563 67 b 515 11 563 28 543 11 l 515 0 l 1074 0 z m 1074 1043 l 656 1043 l 746 860 b 754 826 751 850 754 838 b 722 743 754 796 740 765 l 731 735 l 917 949 b 1074 1032 964 1003 999 1032 z "},"y":{"ha":976,"x_min":0,"x_max":0,"o":"m 122 -633 b 110 -635 118 -635 114 -635 b 72 -597 89 -635 72 -618 b 108 -481 72 -578 108 -539 b -68 -304 108 -383 29 -304 b -243 -481 -164 -304 -243 -383 b -4 -668 -243 -612 -119 -668 b 125 -643 40 -668 85 -660 z m 713 519 b 679 499 706 507 693 499 b 646 518 665 499 651 506 l 428 1043 l -1 1043 l -1 1032 b 114 950 46 1032 97 993 l 508 4 l 722 515 z m 586 1043 l 764 615 l 942 1043 z "},"z":{"ha":876,"x_min":0,"x_max":0,"o":"m 872 432 l 513 0 l 872 0 z m 439 1043 l 439 1032 b 485 988 465 1032 485 1017 b 476 956 485 976 482 965 l 0 0 l 438 0 l 438 11 b 390 56 410 11 390 28 b 399 88 390 67 394 78 l 876 1043 z m 3 1043 l 3 611 l 364 1043 z "},"{":{"ha":661,"x_min":0,"x_max":0,"o":"m 592 -89 b 506 1 543 -89 506 -47 l 506 618 b 425 689 506 657 461 689 l 425 700 b 506 771 461 700 506 732 l 506 1389 b 592 1478 506 1436 543 1481 l 592 1489 l 586 1489 b 506 1482 558 1489 532 1488 b 150 1053 299 1440 150 1264 l 150 781 b 69 700 150 736 114 700 l 69 694 l 69 689 b 150 608 114 689 150 653 l 150 336 b 506 -92 150 126 299 -51 b 581 -100 531 -97 556 -99 l 586 -100 l 592 -100 z "},"}":{"ha":661,"x_min":0,"x_max":0,"o":"m 592 694 l 592 700 b 511 781 547 700 511 736 l 511 1054 b 156 1482 511 1264 363 1442 b 81 1490 131 1488 106 1489 l 75 1490 l 69 1490 l 69 1479 b 156 1390 118 1479 156 1438 l 156 771 b 236 700 156 732 199 700 l 236 689 b 156 618 199 689 156 657 l 156 0 b 69 -89 156 -46 118 -90 l 69 -100 l 75 -100 b 156 -92 101 -100 129 -97 b 511 336 363 -50 511 125 l 511 608 b 592 689 511 653 547 689 z "},"¡":{"ha":501,"x_min":0,"x_max":0,"o":"m 390 969 b 219 893 342 921 289 894 l 213 893 b 35 715 114 890 35 815 l 35 0 l 390 0 z m 467 1135 b 213 1389 465 1275 353 1389 b 35 1211 114 1389 35 1310 b 213 1033 35 1114 114 1033 b 382 1157 292 1033 357 1082 l 382 1158 b 418 1183 388 1174 401 1183 b 456 1135 447 1183 456 1160 l 467 1135 z "},"£":{"ha":1042,"x_min":0,"x_max":0,"o":"m 1007 436 l 1001 436 l 996 436 b 915 356 996 392 960 356 l 651 356 b 138 96 372 356 321 286 b 136 96 138 96 136 96 b 83 49 119 79 101 64 b 415 665 194 190 363 493 l 578 665 l 578 676 l 418 676 b 492 1307 476 879 492 1096 b 496 1321 492 1313 494 1315 b 571 1378 507 1351 536 1378 l 576 1378 l 576 1389 l 571 1389 b 490 1382 543 1389 517 1386 b 132 992 304 1344 132 1192 b 208 676 132 881 185 782 l 39 676 l 39 665 l 211 665 b 228 508 222 614 228 561 b 35 10 228 357 142 118 l 42 1 b 208 79 83 39 151 79 b 361 47 251 79 318 58 b 651 0 456 24 553 1 l 657 0 l 663 0 b 1007 344 850 0 1004 156 b 1007 356 1007 356 1007 356 z m 1007 1039 b 908 1282 1007 1131 971 1217 l 900 1275 b 910 1250 907 1268 910 1258 b 872 1213 910 1229 893 1213 b 829 1217 858 1213 843 1217 b 651 1039 731 1217 651 1138 b 829 861 651 942 731 861 b 1007 1039 926 861 1007 942 z "},"⁄":{"ha":872,"x_min":0,"x_max":0,"o":""},"¥":{"ha":992,"x_min":0,"x_max":0,"o":"m 903 436 l 681 436 l 681 511 l 903 511 l 903 522 l 681 522 b 681 603 681 528 681 603 l 444 1389 l 0 1389 l 0 1378 b 111 1267 65 1378 96 1322 b 325 557 325 557 325 557 b 325 522 325 556 325 525 l 83 522 l 83 511 l 325 511 l 325 436 l 83 436 l 83 425 l 325 425 l 325 92 b 244 11 325 47 289 11 l 244 0 l 761 0 l 761 11 b 681 92 717 11 681 47 l 681 425 l 903 425 z m 992 1389 l 613 1389 l 733 983 b 744 901 742 957 744 929 b 732 814 744 872 742 842 l 743 811 l 879 1267 b 992 1378 896 1322 925 1378 z "},"'":{"ha":424,"x_min":0,"x_max":0,"o":"m 389 1211 b 213 1389 389 1310 310 1389 b 35 1211 114 1389 35 1310 b 213 1033 35 1114 114 1033 b 247 1038 224 1033 235 1035 b 256 1039 250 1038 253 1039 b 293 1001 276 1039 293 1021 b 285 978 293 992 290 985 b 40 872 224 913 136 872 l 40 863 b 292 969 139 863 228 903 b 389 1211 354 1035 389 1121 z "},"“":{"ha":785,"x_min":0,"x_max":0,"o":""},"«":{"ha":854,"x_min":0,"x_max":0,"o":"m 35 1039 b 213 863 35 942 114 863 b 389 1039 310 863 389 942 b 213 1217 389 1138 310 1217 b 178 1213 200 1217 189 1215 b 169 1213 175 1213 172 1213 b 132 1250 149 1213 132 1229 b 139 1274 132 1258 135 1267 b 383 1378 201 1338 288 1378 l 383 1389 b 133 1282 286 1389 196 1347 b 35 1039 69 1217 35 1131 z m 642 863 b 819 1039 740 863 819 942 b 642 1217 819 1138 740 1217 b 607 1213 631 1217 618 1215 b 599 1213 604 1213 601 1213 b 561 1250 578 1213 561 1229 b 569 1274 561 1258 564 1267 b 814 1378 631 1338 718 1378 l 814 1389 b 563 1282 715 1389 626 1347 b 464 1039 500 1217 464 1131 b 642 863 464 942 544 863 z "},"ﬁ":{"ha":1033,"x_min":0,"x_max":0,"o":"m 597 92 b 517 11 597 47 561 11 l 517 11 b 436 92 472 11 436 47 l 436 710 l 517 710 b 597 629 561 710 597 674 l 597 92 z m 1033 11 b 953 92 989 11 953 47 l 953 797 b 778 721 904 750 847 721 l 436 721 l 436 919 b 286 1164 347 969 286 1063 b 290 1208 286 1179 288 1193 b 506 1378 311 1328 385 1378 l 506 1389 b 188 1274 396 1389 269 1349 b 81 1047 131 1221 81 1126 l 81 721 l 0 721 l 0 710 l 81 710 l 81 92 b 0 11 81 47 44 11 l 0 0 l 1033 0 z m 953 1103 b 871 1264 953 1161 910 1225 b 731 1351 831 1303 782 1332 l 726 1342 b 749 1307 740 1336 749 1322 b 722 1271 749 1288 739 1279 l 722 1271 b 597 1101 646 1249 597 1182 b 775 924 597 1004 678 924 b 953 1103 875 924 953 1004 z "},"ﬂ":{"ha":1033,"x_min":0,"x_max":0,"o":"m 597 92 b 517 11 597 47 561 11 l 517 11 b 436 92 472 11 436 47 l 436 710 l 597 710 l 597 92 z m 436 721 l 436 919 b 286 1164 347 969 286 1063 b 290 1208 286 1179 288 1193 b 517 1378 313 1336 390 1378 b 597 1297 561 1378 597 1342 l 597 721 z m 1033 11 b 953 92 989 11 953 47 l 953 1389 l 506 1389 b 188 1274 396 1389 269 1349 b 81 1047 131 1221 81 1126 l 81 721 l 0 721 l 0 710 l 81 710 l 81 92 b 0 11 81 47 44 11 l 0 0 l 1033 0 z "},"”":{"ha":785,"x_min":0,"x_max":0,"o":""},"»":{"ha":854,"x_min":0,"x_max":0,"o":"m 819 1211 b 642 1389 819 1308 740 1389 b 464 1211 544 1389 464 1308 b 642 1033 464 1114 544 1033 b 676 1038 654 1033 665 1035 b 685 1039 679 1038 682 1039 b 722 1001 706 1039 722 1021 b 714 978 722 992 719 983 b 469 872 653 913 567 872 l 469 863 b 721 968 568 863 657 903 b 819 1211 785 1035 819 1121 z m 213 1389 b 35 1211 114 1389 35 1308 b 213 1033 35 1114 114 1033 b 247 1038 224 1033 235 1035 b 256 1039 250 1038 253 1039 b 293 1001 276 1039 293 1021 b 285 978 293 992 290 983 b 40 872 224 913 136 872 l 40 863 b 292 968 139 863 228 903 b 389 1211 354 1035 389 1121 b 213 1389 389 1308 310 1389 z "},"¿":{"ha":1049,"x_min":0,"x_max":0,"o":"m 865 1060 b 865 1093 865 1071 865 1082 l 854 1093 b 467 799 854 913 604 844 b 356 761 429 788 392 775 b 69 385 189 699 69 568 b 133 178 69 310 86 238 b 525 0 225 63 381 0 l 525 6 l 525 11 b 329 206 417 11 329 99 b 586 569 329 388 451 476 b 733 686 638 606 692 640 b 865 1060 825 786 865 925 z m 979 350 b 801 528 979 447 900 528 b 624 350 704 528 624 447 b 775 199 624 260 686 199 b 844 210 800 199 822 210 b 882 172 865 210 882 193 b 874 147 882 163 879 154 l 881 140 b 979 350 939 199 979 265 z m 826 1211 b 649 1389 826 1310 746 1389 b 471 1211 550 1389 471 1310 b 649 1033 471 1114 550 1033 b 826 1211 746 1033 826 1114 z "},"Æ":{"ha":1426,"x_min":0,"x_max":0,"o":"m 1392 342 l 1386 342 b 1369 340 1381 342 1375 342 b 1040 0 1201 301 1072 169 l 1392 0 z m 597 567 b 500 351 597 483 561 407 b 474 340 492 344 483 340 b 436 378 453 340 436 357 l 436 836 b 458 976 436 872 444 942 l 597 1353 l 597 567 z m 1392 694 b 1240 846 1392 778 1324 846 b 1033 763 1163 846 1089 817 b 953 628 994 725 967 678 l 953 1383 b 947 1389 953 1386 950 1389 l 603 1389 b 597 1385 600 1389 599 1388 l 113 89 b 0 11 96 47 46 11 l 0 0 l 436 0 l 436 297 b 597 488 515 333 574 404 l 597 0 l 953 0 l 953 547 b 1015 728 953 613 975 676 b 1042 756 1024 736 1032 749 b 1061 763 1047 760 1054 763 b 1092 731 1078 763 1092 749 b 1089 694 1092 719 1089 707 b 1240 542 1089 611 1157 542 b 1392 694 1324 542 1392 611 z m 1392 1389 l 1040 1389 b 1369 1049 1072 1219 1201 1088 b 1392 1047 1376 1047 1385 1047 z "},"Œ":{"ha":1311,"x_min":0,"x_max":0,"o":"m 517 92 b 436 11 517 47 481 11 b 356 100 390 11 356 57 l 356 1289 b 436 1378 356 1332 390 1378 b 517 1297 481 1378 517 1342 l 517 92 z m 872 1389 b 436 1389 726 1389 581 1390 b 0 958 200 1386 0 1199 l 0 429 b 431 0 0 197 199 0 l 872 0 z m 1311 342 l 1306 342 b 1289 340 1300 342 1294 342 b 960 0 1121 301 992 169 l 1311 0 z m 1311 694 b 1160 846 1311 778 1243 846 b 951 763 1082 846 1008 817 l 960 754 b 981 763 965 760 972 763 b 1011 731 997 763 1011 749 b 1007 694 1011 719 1007 707 b 1160 542 1007 611 1076 542 b 1311 694 1243 542 1311 611 z m 1311 1389 l 960 1389 b 1289 1049 992 1219 1121 1088 b 1311 1047 1296 1047 1304 1047 z "},"æ":{"ha":1461,"x_min":0,"x_max":0,"o":"m 468 11 b 389 92 424 13 389 47 l 389 435 b 464 528 389 479 425 515 l 461 539 b 383 522 436 531 410 525 b 35 264 229 506 35 454 b 389 4 35 71 233 19 b 468 0 415 1 442 0 l 468 11 z m 389 756 b 265 925 389 836 342 903 l 264 925 b 238 961 249 933 238 942 b 261 996 238 976 247 990 l 257 1006 b 119 921 207 986 158 958 l 117 921 l 117 918 b 35 756 76 879 35 814 b 213 578 35 658 114 578 b 389 756 310 578 389 658 z m 986 11 b 906 92 942 11 906 47 l 906 697 l 906 1036 b 743 969 843 1021 797 1004 b 507 1042 674 1013 589 1038 l 507 1031 b 682 914 588 1026 653 994 b 700 818 693 883 700 851 b 694 768 700 801 699 785 b 553 576 675 681 633 622 l 550 575 l 550 0 l 986 0 z m 1425 299 b 1249 469 1425 392 1340 469 b 1071 292 1151 469 1071 390 b 1214 118 1071 206 1129 135 l 1214 118 b 1244 81 1232 113 1244 100 b 1225 47 1244 67 1236 54 l 1229 39 b 1357 136 1278 63 1322 94 l 1360 138 l 1360 140 b 1425 299 1394 182 1425 242 z m 1425 613 b 1067 1036 1424 825 1274 997 b 986 1043 1040 1042 1013 1043 l 981 1043 l 981 1032 l 986 1032 b 1067 943 1032 1032 1067 988 l 1071 639 b 990 558 1071 594 1035 560 l 992 549 l 1426 549 z "},"œ":{"ha":1458,"x_min":0,"x_max":0,"o":"m 475 1043 l 469 1043 b 389 1036 442 1043 415 1040 l 378 1033 b 35 608 178 994 35 813 l 35 435 b 389 7 35 225 183 46 l 389 943 b 475 1032 389 992 426 1032 z m 996 11 b 914 100 951 13 914 57 l 904 1035 b 729 957 840 1021 782 996 b 550 1036 675 997 615 1022 l 550 100 b 464 11 550 53 513 10 l 464 0 l 469 0 b 550 7 496 0 524 3 l 560 10 b 732 89 622 22 682 50 b 915 8 785 50 851 19 b 996 0 942 3 968 3 l 996 11 z m 1424 297 b 1247 468 1424 392 1339 468 b 1069 292 1149 468 1069 389 b 1211 117 1069 204 1128 133 l 1213 117 b 1242 81 1231 114 1242 100 b 1222 47 1242 67 1235 54 l 1228 38 b 1424 297 1322 85 1424 185 z m 1424 614 b 1065 1036 1421 825 1272 997 b 985 1043 1038 1042 1011 1043 l 979 1043 l 979 1032 l 985 1032 b 1065 944 1029 1033 1065 988 l 1069 640 b 989 560 1069 596 1033 561 l 990 550 l 1424 550 z "},"ß":{"ha":988,"x_min":0,"x_max":0,"o":"m 436 1389 b 81 1039 240 1389 81 1236 l 81 92 b 0 11 81 47 44 11 l 0 0 l 436 0 z m 953 353 b 604 700 953 575 807 669 b 571 701 593 701 582 701 b 479 738 540 701 479 688 b 517 775 479 758 496 775 b 604 775 546 775 575 771 b 953 1079 783 799 953 871 b 608 1383 953 1285 788 1361 b 519 1389 579 1388 549 1389 l 519 1378 b 597 1282 568 1376 597 1326 l 597 867 b 517 786 597 822 561 786 b 468 738 490 786 468 764 b 517 689 468 710 490 690 b 597 608 563 686 597 656 l 597 121 b 519 11 597 76 572 13 l 519 0 b 608 7 549 0 579 3 b 953 353 808 35 953 135 z "},"Á":{"ha":983,"x_min":0,"x_max":0,"o":"m 256 401 b 244 482 247 428 244 456 b 257 569 244 513 249 542 l 246 574 l 111 121 b 0 11 94 67 64 11 l 0 0 l 376 0 z m 983 11 b 872 121 919 11 889 67 l 492 1390 l 308 779 l 542 0 l 983 0 z m 486 1719 l 486 1475 b 724 1703 604 1497 696 1585 b 725 1719 725 1708 725 1714 z "},"Â":{"ha":981,"x_min":0,"x_max":0,"o":"m 254 401 b 244 481 247 426 244 453 b 256 568 244 510 247 539 l 246 571 b 111 121 200 421 156 271 b 0 11 94 67 64 11 l 0 0 l 375 0 z m 981 11 b 869 121 915 11 886 67 l 490 1386 l 307 778 l 540 0 l 981 0 z m 490 1717 l 307 1533 l 674 1533 z "},"Ä":{"ha":981,"x_min":0,"x_max":0,"o":"m 254 401 b 244 482 247 426 244 454 b 256 568 244 511 247 540 l 246 571 l 111 121 b 0 11 94 67 64 11 l 0 0 l 375 0 z m 981 11 b 869 121 917 11 886 67 b 490 1386 490 1386 490 1386 l 307 778 l 540 0 l 981 0 z m 453 1596 b 333 1715 453 1661 400 1715 b 215 1596 268 1715 215 1661 b 333 1478 215 1531 268 1478 b 453 1596 400 1478 453 1531 z m 765 1596 b 646 1715 765 1661 711 1715 b 528 1596 581 1715 528 1661 b 646 1478 528 1531 581 1478 b 765 1596 711 1478 765 1531 z "},"À":{"ha":981,"x_min":0,"x_max":0,"o":"m 254 401 b 244 481 247 426 244 454 b 256 568 244 510 247 540 l 246 571 b 111 121 203 421 156 271 b 0 11 94 67 64 11 l 0 0 l 375 0 z m 981 11 b 869 121 917 11 886 67 b 490 1386 490 1386 490 1386 l 307 778 l 540 0 l 981 0 z m 496 1715 l 258 1715 l 258 1710 b 258 1697 258 1706 258 1701 b 496 1471 286 1581 378 1493 z "},"Ã":{"ha":983,"x_min":0,"x_max":0,"o":"m 256 401 b 244 482 247 428 244 456 b 257 569 244 511 247 542 l 246 572 l 111 121 b 0 11 94 67 64 11 l 0 0 l 375 0 z m 983 11 b 872 121 918 11 888 67 b 492 1390 492 1390 492 1390 l 308 779 l 542 0 l 983 0 z m 710 1763 l 706 1763 l 700 1763 b 663 1725 700 1742 683 1725 l 449 1725 b 272 1549 351 1725 272 1646 l 272 1506 l 283 1506 b 321 1543 283 1526 300 1543 l 535 1543 b 710 1719 631 1543 710 1622 z "},"Ç":{"ha":933,"x_min":0,"x_max":0,"o":"m 856 -339 b 757 -96 856 -249 819 -161 l 749 -103 b 758 -128 756 -110 758 -119 b 721 -165 758 -149 742 -165 b 678 -161 707 -165 692 -161 b 500 -339 579 -161 500 -242 b 678 -517 500 -436 579 -517 b 856 -339 775 -517 856 -436 z m 899 285 b 742 442 899 372 828 442 b 586 286 656 442 586 371 l 586 100 b 500 11 586 51 549 11 l 500 0 l 506 0 b 586 7 532 0 560 3 l 597 10 b 874 204 710 32 813 104 b 899 285 889 228 899 256 z m 425 1381 b 69 953 219 1343 69 1161 l 69 436 b 425 7 69 228 219 46 z m 899 1103 b 874 1185 899 1132 889 1160 b 597 1378 813 1285 710 1354 l 586 1381 b 500 1388 557 1386 529 1389 l 500 1378 b 586 1288 549 1378 586 1336 l 586 1103 b 742 947 586 1017 656 947 b 899 1103 828 947 899 1017 z "},"É":{"ha":875,"x_min":0,"x_max":0,"o":"m 875 342 l 869 342 b 853 340 864 342 858 342 b 524 0 685 301 556 169 l 875 0 z m 436 1389 l 0 1389 l 0 1378 b 81 1297 44 1378 81 1342 l 81 92 b 0 11 81 47 44 11 l 0 0 l 436 0 z m 875 694 b 724 846 875 778 807 846 b 517 763 646 846 572 817 l 524 754 b 544 763 529 760 536 763 b 575 731 561 763 575 747 b 572 694 575 718 572 707 b 724 542 572 611 640 542 b 875 694 807 542 875 611 z m 875 1389 l 524 1389 b 853 1049 556 1219 685 1088 b 875 1047 860 1047 868 1047 z m 315 1735 l 315 1488 b 554 1717 435 1510 526 1597 b 556 1735 556 1722 556 1729 z "},"Ê":{"ha":911,"x_min":0,"x_max":0,"o":"m 876 343 l 871 343 b 854 340 865 343 860 342 b 525 0 686 303 557 169 l 876 0 z m 436 1389 l 0 1389 l 0 1378 b 81 1297 44 1378 81 1342 l 81 92 b 0 11 81 47 44 11 l 0 0 l 436 0 z m 876 696 b 725 847 876 779 808 847 b 517 764 647 847 572 817 l 525 756 b 544 764 531 761 538 764 b 576 732 563 764 576 749 b 572 696 576 719 572 708 b 725 543 572 611 640 543 b 876 696 808 543 876 611 z m 876 1389 l 525 1389 b 854 1049 557 1219 686 1086 b 876 1046 861 1046 869 1046 z m 436 1738 l 250 1551 l 621 1551 z "},"Ë":{"ha":911,"x_min":0,"x_max":0,"o":"m 876 343 l 871 343 b 854 340 865 343 860 342 b 525 0 686 303 557 169 l 876 0 z m 436 1389 l 0 1389 l 0 1378 b 81 1297 44 1378 81 1342 l 81 92 b 0 11 81 47 44 11 l 0 0 l 436 0 z m 876 694 b 725 847 876 779 808 847 b 517 764 647 847 572 817 l 524 756 b 544 763 529 760 538 763 b 576 732 563 763 576 749 b 572 694 576 719 572 707 b 725 543 572 611 640 543 b 876 694 808 543 876 611 z m 397 1615 b 278 1735 397 1681 344 1735 b 157 1615 211 1735 157 1681 b 278 1494 157 1549 211 1494 b 397 1615 344 1494 397 1549 z m 876 1389 l 525 1389 b 854 1049 557 1219 686 1086 b 876 1046 861 1047 869 1046 z m 714 1615 b 593 1735 714 1681 660 1735 b 474 1615 528 1735 474 1681 b 593 1494 474 1549 528 1494 b 714 1615 660 1494 714 1549 z "},"È":{"ha":914,"x_min":0,"x_max":0,"o":"m 879 343 l 874 343 b 856 342 867 343 861 343 b 526 0 688 303 558 169 l 879 0 z m 438 1389 l 0 1389 l 0 1378 b 81 1297 44 1378 81 1342 l 81 92 b 0 11 81 47 44 11 l 0 0 l 438 0 z m 879 697 b 726 849 879 781 810 849 b 518 765 649 849 574 819 l 525 757 b 546 765 531 763 539 765 b 578 733 563 765 578 750 b 574 697 578 721 574 710 b 726 544 574 613 642 544 b 879 697 810 544 879 613 z m 879 1389 l 526 1389 b 856 1047 558 1218 688 1086 b 879 1046 863 1046 871 1046 z m 557 1736 l 315 1736 l 315 1731 b 317 1718 315 1726 317 1722 b 557 1488 344 1599 438 1510 z "},"Í":{"ha":517,"x_min":0,"x_max":0,"o":"m 517 11 b 436 92 472 11 436 47 l 436 1297 b 517 1378 436 1340 472 1378 l 517 1388 l 0 1388 l 0 1378 b 81 1297 44 1378 81 1340 l 81 92 b 0 11 81 47 44 11 l 0 0 l 517 0 z m 138 1732 l 138 1485 b 376 1714 257 1508 350 1596 b 378 1732 378 1721 378 1726 z "},"Î":{"ha":517,"x_min":0,"x_max":0,"o":"m 517 13 b 436 93 472 13 436 49 l 436 1297 b 517 1378 436 1342 472 1378 l 517 1389 l 0 1389 l 0 1378 b 81 1297 44 1378 81 1342 l 81 93 b 0 13 81 49 44 13 l 0 1 l 517 1 z m 258 1735 l 74 1550 l 443 1550 z "},"Ï":{"ha":517,"x_min":0,"x_max":0,"o":"m 517 13 b 436 93 472 13 436 49 l 436 1297 b 517 1378 436 1342 472 1378 l 517 1389 l 0 1389 l 0 1378 b 81 1297 44 1378 81 1342 l 81 93 b 0 13 81 49 44 13 l 0 1 l 517 1 z m 221 1613 b 100 1733 221 1679 167 1733 b -19 1613 35 1733 -19 1679 b 100 1493 -19 1547 35 1493 b 221 1613 167 1493 221 1547 z m 536 1613 b 417 1733 536 1679 482 1733 b 296 1613 350 1733 296 1679 b 417 1493 296 1547 350 1493 b 536 1613 482 1493 536 1547 z "},"Ì":{"ha":515,"x_min":0,"x_max":0,"o":"m 515 11 b 435 92 471 11 435 47 l 435 1297 b 515 1378 435 1342 471 1378 l 515 1389 l 0 1389 l 0 1378 b 81 1297 44 1378 81 1342 l 81 92 b 0 11 81 47 44 11 l 0 0 l 515 0 z m 378 1732 l 138 1732 l 138 1726 b 139 1714 138 1722 139 1718 b 378 1486 167 1596 258 1508 z "},"Ñ":{"ha":1054,"x_min":0,"x_max":0,"o":"m 124 806 b 92 1014 96 881 92 933 l 81 1014 l 81 92 b 0 11 81 47 44 11 l 0 0 l 418 0 z m 460 1389 l 0 1389 l 0 1378 b 107 1311 46 1378 90 1357 l 597 0 l 975 0 z m 1054 1389 l 635 1389 l 929 583 b 963 375 957 508 963 456 l 972 375 l 972 1297 b 1054 1378 972 1342 1010 1378 z m 747 1771 l 742 1771 l 736 1771 b 699 1733 736 1750 719 1733 l 483 1733 b 306 1556 386 1733 306 1653 l 306 1513 l 317 1513 b 354 1550 317 1533 333 1550 l 569 1550 b 747 1728 668 1550 747 1631 z "},"Ó":{"ha":943,"x_min":0,"x_max":0,"o":"m 476 1389 l 471 1389 b 390 1382 444 1389 417 1386 b 35 953 183 1340 35 1165 l 35 436 b 390 7 35 226 185 46 l 390 1289 b 476 1378 390 1338 428 1378 z m 908 953 b 551 1382 908 1164 758 1340 l 551 100 b 465 11 551 51 514 11 l 465 0 l 471 0 b 551 7 499 0 525 1 b 899 349 726 43 864 172 b 908 436 906 378 908 407 z m 379 1735 l 379 1488 b 619 1717 499 1510 592 1599 b 621 1735 621 1724 621 1729 z "},"Ô":{"ha":943,"x_min":0,"x_max":0,"o":"m 553 97 b 471 8 553 54 517 8 b 390 97 426 8 390 54 l 390 1289 b 471 1378 390 1332 426 1378 b 553 1289 517 1378 553 1332 l 553 97 z m 908 953 b 899 1040 908 982 906 1011 b 553 1382 864 1215 726 1347 b 471 1389 525 1386 499 1389 b 390 1382 444 1389 417 1386 b 35 953 183 1339 35 1163 l 35 433 b 390 4 35 224 183 46 b 472 -3 418 0 444 -3 b 553 4 499 -3 526 0 b 900 347 728 40 864 171 b 908 433 906 375 908 404 z m 471 1738 l 286 1551 l 657 1551 z "},"Ö":{"ha":944,"x_min":0,"x_max":0,"o":"m 478 1389 l 472 1389 b 392 1382 444 1389 418 1386 b 35 951 185 1340 35 1165 l 35 438 b 392 7 35 226 185 46 l 392 1289 b 478 1378 392 1338 429 1378 z m 910 951 b 553 1382 910 1163 760 1340 l 553 100 b 467 11 553 51 515 11 l 467 0 l 472 0 b 553 7 499 0 526 1 b 901 350 728 43 865 174 b 910 438 907 378 910 408 z m 435 1615 b 314 1736 435 1682 381 1736 b 193 1615 247 1736 193 1682 b 314 1494 193 1549 247 1494 b 435 1615 381 1494 435 1549 z m 751 1615 b 631 1736 751 1682 697 1736 b 510 1615 564 1736 510 1682 b 631 1494 510 1549 564 1494 b 751 1615 697 1494 751 1549 z "},"Ò":{"ha":940,"x_min":0,"x_max":0,"o":"m 475 1389 l 471 1389 b 390 1382 443 1389 417 1386 b 35 953 183 1340 35 1165 l 35 436 b 390 7 35 226 185 46 l 390 1289 b 475 1378 390 1338 428 1378 z m 906 953 b 551 1382 906 1164 757 1342 l 551 100 b 465 11 551 51 514 11 l 465 0 l 471 0 b 551 7 497 0 525 1 b 897 349 725 43 861 172 b 906 436 903 376 906 406 z m 561 1735 l 321 1735 l 321 1729 b 322 1717 321 1725 322 1721 b 561 1488 350 1597 443 1510 z "},"Õ":{"ha":940,"x_min":0,"x_max":0,"o":"m 475 1389 l 469 1389 b 389 1382 443 1389 415 1386 b 35 954 183 1340 35 1165 l 35 435 b 389 7 35 225 183 46 l 389 1289 b 475 1378 389 1338 426 1378 z m 906 954 b 550 1382 906 1164 757 1342 l 550 100 b 465 11 550 51 513 11 l 465 0 l 469 0 b 550 7 497 0 524 1 b 897 349 725 42 861 172 b 906 435 903 376 906 406 z m 690 1778 l 685 1778 l 679 1778 b 642 1740 679 1757 663 1740 l 426 1740 b 250 1563 329 1740 250 1660 l 250 1519 l 260 1519 b 299 1557 260 1540 278 1557 l 513 1557 b 690 1735 611 1557 690 1636 z "},"Ú":{"ha":1033,"x_min":0,"x_max":0,"o":"m 522 11 b 436 100 474 11 436 51 l 436 1389 l 0 1389 l 0 1378 b 81 1297 44 1378 81 1342 l 81 436 b 436 7 81 224 229 49 b 522 0 464 1 493 0 z m 1033 1389 l 517 1389 l 517 1378 b 597 1297 561 1378 597 1342 l 597 7 b 953 436 803 47 953 226 l 953 1297 b 1033 1378 953 1342 989 1378 z m 425 1735 l 425 1488 b 664 1717 544 1510 638 1599 b 665 1735 665 1722 665 1729 z "},"Û":{"ha":1033,"x_min":0,"x_max":0,"o":"m 522 11 b 436 100 474 11 436 51 l 436 1389 l 0 1389 l 0 1378 b 81 1297 44 1378 81 1342 l 81 436 b 436 7 81 224 229 49 b 522 0 464 1 493 0 z m 1033 1389 l 517 1389 l 517 1378 b 597 1297 561 1378 597 1342 l 597 7 b 953 436 803 47 953 225 l 953 1297 b 1033 1378 953 1342 989 1378 z m 517 1736 l 332 1551 l 701 1551 z "},"Ü":{"ha":1033,"x_min":0,"x_max":0,"o":"m 522 11 b 436 100 474 11 436 51 l 436 1389 l 0 1389 l 0 1378 b 81 1297 44 1378 81 1342 l 81 436 b 436 7 81 224 229 49 b 522 0 464 1 493 0 z m 1033 1389 l 517 1389 l 517 1378 b 597 1297 561 1378 597 1342 l 597 7 b 953 436 804 47 953 226 l 953 1297 b 1033 1378 953 1342 990 1378 z m 479 1614 b 360 1735 479 1681 425 1735 b 239 1614 293 1735 239 1681 b 360 1494 239 1549 293 1494 b 479 1614 425 1494 479 1549 z m 796 1614 b 675 1735 796 1681 742 1735 b 554 1614 608 1735 554 1681 b 675 1494 554 1549 608 1494 b 796 1614 742 1494 796 1549 z "},"Ù":{"ha":1032,"x_min":0,"x_max":0,"o":"m 521 10 b 436 99 474 10 436 51 l 436 1389 l 0 1389 l 0 1378 b 81 1297 44 1378 81 1342 l 81 435 b 436 7 81 222 229 49 b 521 -1 464 1 493 -1 z m 1032 1389 l 517 1389 l 517 1378 b 597 1297 560 1378 597 1342 l 597 7 b 951 435 803 46 951 225 l 951 1297 b 1032 1378 951 1342 988 1378 z m 607 1735 l 367 1735 l 367 1729 b 368 1717 367 1725 368 1721 b 607 1488 396 1597 488 1510 z "},"á":{"ha":986,"x_min":0,"x_max":0,"o":"m 468 11 b 390 92 424 13 390 47 l 390 436 b 464 528 390 479 425 515 l 461 539 b 383 522 436 532 410 525 b 35 264 229 507 35 454 b 390 4 35 69 233 19 b 468 0 415 1 442 0 l 468 11 z m 390 756 b 265 925 390 836 342 903 l 265 925 b 239 961 249 933 239 942 b 261 996 239 976 247 990 l 257 1007 b 35 758 156 968 36 875 l 35 756 b 213 579 33 658 114 579 b 390 756 310 579 390 658 z m 986 11 b 906 92 942 11 906 47 l 906 697 l 906 701 b 799 928 906 782 857 875 b 482 1043 717 1003 592 1043 l 482 1032 b 697 863 601 1032 676 982 b 701 819 700 849 701 833 b 551 575 701 717 639 624 l 551 0 l 986 0 z m 379 1389 l 379 1142 b 618 1371 499 1164 590 1253 b 619 1389 619 1376 619 1383 z "},"â":{"ha":985,"x_min":0,"x_max":0,"o":"m 468 11 b 389 92 424 13 389 47 l 389 435 b 464 528 389 478 424 515 l 461 538 b 383 522 435 531 410 525 b 35 263 229 506 35 453 b 389 4 35 69 233 19 b 468 0 415 1 442 0 l 468 11 z m 389 756 b 265 924 389 835 340 901 l 264 924 b 238 960 249 932 238 940 b 261 994 238 975 247 989 l 257 1004 b 35 757 156 967 36 874 l 35 756 b 213 578 33 657 114 578 b 389 756 310 578 389 657 z m 985 11 b 904 92 940 11 904 47 l 904 696 l 904 701 b 797 926 904 781 857 872 b 481 1042 717 1001 590 1042 l 481 1031 b 696 861 601 1031 675 981 b 700 818 699 847 700 832 b 550 574 700 715 638 622 l 550 0 l 985 0 z m 469 1389 l 285 1204 l 654 1204 z "},"ä":{"ha":986,"x_min":0,"x_max":0,"o":"m 468 11 b 390 92 424 13 390 47 l 390 436 b 464 528 390 479 425 515 l 461 539 b 383 522 436 532 410 525 b 35 264 229 507 35 454 b 390 4 35 69 233 19 b 468 0 415 1 442 0 l 468 11 z m 390 756 b 265 925 390 836 342 903 l 265 925 b 239 961 249 933 239 942 b 261 996 239 976 247 990 l 257 1007 b 35 758 156 968 36 875 l 35 756 b 213 579 33 658 114 579 b 390 756 310 579 390 658 z m 986 11 b 906 92 942 11 906 47 l 906 697 l 906 701 b 799 928 904 782 858 874 b 482 1043 717 1003 592 1043 l 482 1032 b 697 863 601 1032 676 982 b 701 819 700 849 701 833 b 551 575 701 717 639 624 l 551 0 l 986 0 z m 433 1268 b 313 1389 433 1335 379 1389 b 193 1268 246 1389 193 1335 b 313 1149 193 1203 246 1149 b 433 1268 379 1149 433 1203 z m 749 1268 b 628 1389 749 1335 694 1389 b 508 1268 563 1389 508 1335 b 628 1149 508 1203 563 1149 b 749 1268 694 1149 749 1203 z "},"à":{"ha":986,"x_min":0,"x_max":0,"o":"m 468 11 b 390 92 424 13 390 47 l 390 436 b 464 528 390 479 425 515 l 461 539 b 383 522 436 532 410 525 b 35 264 229 507 35 454 b 390 4 35 69 233 19 b 468 0 415 1 442 0 l 468 11 z m 390 756 b 265 925 390 836 342 903 l 265 925 b 239 961 249 933 239 942 b 261 996 239 976 247 990 l 257 1007 b 35 758 156 968 36 875 l 35 756 b 213 579 33 658 114 579 b 390 756 310 579 390 658 z m 986 11 b 906 92 942 11 906 47 l 906 697 l 906 701 b 799 928 904 782 857 875 b 482 1043 717 1003 592 1043 l 482 1032 b 697 863 601 1032 676 982 b 701 819 700 849 701 833 b 551 575 701 717 639 624 l 551 0 l 986 0 z m 561 1389 l 321 1389 l 321 1383 b 322 1371 321 1379 322 1375 b 561 1142 350 1253 443 1164 z "},"ã":{"ha":944,"x_min":0,"x_max":0,"o":"m 449 11 b 374 92 407 13 374 47 l 374 436 b 446 529 374 481 407 517 l 443 540 b 368 524 418 533 393 526 b 35 264 221 508 35 456 b 374 4 35 71 224 19 b 449 0 399 1 424 0 l 449 11 z m 374 758 b 254 928 374 839 328 906 l 254 928 b 229 964 239 936 229 944 b 251 999 229 979 238 993 l 247 1010 b 35 760 150 971 36 878 l 35 758 b 204 581 33 660 111 581 b 374 758 297 581 374 660 z m 944 11 b 867 92 901 11 867 47 l 867 700 l 867 704 b 765 931 867 783 821 876 b 463 1046 688 1006 567 1046 l 463 1035 b 668 865 576 1036 647 985 b 671 821 669 850 671 836 b 528 576 671 719 613 625 l 528 0 l 944 0 z m 700 1431 l 696 1431 l 690 1431 b 654 1393 690 1410 674 1393 l 449 1393 b 279 1215 356 1393 279 1313 l 279 1171 l 289 1171 b 325 1210 289 1192 306 1210 l 531 1210 b 700 1388 624 1210 700 1289 z "},"ç":{"ha":975,"x_min":0,"x_max":0,"o":"m 854 -339 b 756 -96 854 -249 819 -161 l 749 -103 b 757 -128 754 -110 757 -119 b 719 -165 757 -149 740 -165 b 676 -161 706 -165 692 -161 b 500 -339 579 -161 500 -242 b 676 -517 500 -436 579 -517 b 854 -339 775 -517 854 -436 z m 510 11 b 424 100 461 11 424 51 l 424 943 b 510 1032 424 992 461 1032 l 510 1043 l 504 1043 b 424 1035 478 1043 451 1040 b 69 607 217 993 69 818 l 69 435 b 424 7 69 225 218 49 b 510 0 453 1 482 0 z m 940 288 b 763 464 940 385 861 464 b 586 288 665 464 586 385 b 710 118 586 207 635 142 l 710 118 b 738 82 726 110 738 101 b 714 47 738 67 728 53 l 718 38 b 856 121 768 56 817 83 l 858 122 l 858 125 b 940 288 899 164 940 229 z m 940 758 b 858 918 940 814 897 879 l 858 921 l 856 921 b 718 1006 817 958 768 986 l 714 996 b 738 961 728 990 738 976 b 710 925 738 942 726 933 l 710 925 b 586 756 633 903 586 836 b 763 578 586 658 665 578 b 940 758 863 578 940 658 z "},"é":{"ha":942,"x_min":0,"x_max":0,"o":"m 478 11 b 396 100 433 10 396 58 l 385 1036 b 35 603 179 993 32 814 l 36 433 b 369 14 39 226 175 68 b 386 10 375 13 381 11 b 478 0 417 4 446 1 l 478 11 z m 907 297 b 729 469 907 392 822 469 b 551 292 632 469 551 389 b 694 117 551 206 610 133 l 694 117 b 725 81 713 113 725 100 b 706 47 725 67 717 54 l 710 38 b 907 297 804 85 907 185 z m 907 613 b 547 1038 904 825 754 999 b 461 1044 518 1043 489 1044 l 461 1033 l 467 1033 b 547 944 511 1033 547 988 l 551 639 b 471 560 551 594 515 560 l 471 549 l 907 549 z m 375 1389 l 375 1142 b 614 1371 494 1164 586 1253 b 615 1389 615 1376 615 1383 z "},"ê":{"ha":940,"x_min":0,"x_max":0,"o":"m 476 11 b 394 100 432 10 396 58 l 385 1033 b 35 603 179 992 32 813 l 36 432 b 369 14 39 226 175 67 b 385 10 375 13 379 11 b 476 0 415 4 446 1 l 476 11 z m 906 297 b 728 468 906 392 821 468 b 551 292 631 468 551 389 b 693 117 551 206 608 133 l 693 117 b 724 81 711 111 724 100 b 704 47 724 67 717 54 l 710 38 b 838 136 757 63 801 94 l 840 136 l 840 139 b 906 297 875 182 906 242 z m 906 611 b 546 1036 903 824 753 997 b 460 1042 518 1042 489 1043 l 460 1032 l 467 1032 b 547 943 511 1032 547 986 l 550 638 b 471 558 551 594 514 558 l 471 547 l 906 547 z m 465 1389 l 281 1204 l 650 1204 z "},"ë":{"ha":942,"x_min":0,"x_max":0,"o":"m 478 11 b 396 100 433 10 396 58 l 385 1036 b 35 603 179 993 32 814 l 36 433 b 369 14 39 226 175 67 b 386 10 375 13 381 11 b 478 0 417 4 446 1 l 478 11 z m 907 297 b 729 469 907 392 822 469 b 551 292 632 469 551 389 b 694 117 551 206 610 133 l 694 117 b 725 81 713 113 725 100 b 706 47 725 67 717 54 l 710 38 b 907 297 804 85 907 185 z m 907 613 b 547 1038 904 825 754 999 b 467 1044 521 1043 493 1044 l 461 1044 l 461 1033 l 467 1033 b 547 944 513 1033 547 988 l 551 639 b 471 560 551 594 515 560 l 471 549 l 907 549 z m 429 1268 b 308 1389 429 1335 375 1389 b 188 1268 242 1389 188 1335 b 308 1149 188 1203 242 1149 b 429 1268 375 1149 429 1203 z m 744 1268 b 624 1389 744 1335 690 1389 b 504 1268 558 1389 504 1335 b 624 1149 504 1203 558 1149 b 744 1268 690 1149 744 1203 z "},"è":{"ha":942,"x_min":0,"x_max":0,"o":"m 478 11 b 396 100 433 10 396 58 l 385 1036 b 35 603 179 993 32 814 l 36 433 b 369 14 39 226 175 67 b 386 10 375 13 381 11 b 478 0 417 4 446 1 l 478 11 z m 907 297 b 729 469 907 392 822 469 b 551 292 632 469 551 389 b 694 117 551 206 610 133 l 694 117 b 725 81 713 113 725 100 b 706 47 725 67 717 54 l 710 38 b 907 297 804 85 907 185 z m 907 613 b 547 1038 904 825 754 999 b 467 1044 521 1043 493 1044 l 461 1044 l 461 1033 l 467 1033 l 467 1032 b 547 944 513 1032 547 989 l 551 639 b 471 560 551 594 515 560 l 471 549 l 907 549 z m 558 1389 l 317 1389 l 317 1383 b 318 1371 317 1379 318 1375 b 558 1142 346 1253 439 1164 z "},"í":{"ha":517,"x_min":0,"x_max":0,"o":"m 517 11 b 436 92 472 11 436 47 l 436 1043 l 0 1043 l 0 1032 b 81 951 44 1032 81 996 l 81 92 b 0 11 81 47 44 11 l 0 0 l 517 0 z m 138 1388 l 138 1140 b 378 1369 257 1163 350 1250 b 379 1388 379 1375 379 1381 z "},"î":{"ha":515,"x_min":0,"x_max":0,"o":"m 515 11 b 435 92 471 11 435 47 l 435 1043 l 0 1043 l 0 1032 b 81 951 44 1032 81 996 l 81 92 b 0 11 81 47 44 11 l 0 0 l 515 0 z m 258 1389 l 74 1204 l 443 1204 z "},"ï":{"ha":556,"x_min":0,"x_max":0,"o":"m 536 11 b 456 92 492 11 456 47 l 456 1044 l 19 1044 l 19 1033 b 100 953 64 1033 100 997 l 100 92 b 19 11 100 47 64 11 l 19 0 l 536 0 z m 240 1268 b 121 1389 240 1335 186 1389 b 0 1268 54 1389 0 1335 b 121 1149 0 1203 54 1149 b 240 1268 186 1149 240 1203 z m 556 1268 b 436 1389 556 1335 503 1389 b 315 1268 369 1389 315 1335 b 436 1149 315 1203 369 1149 b 556 1268 503 1149 556 1203 z "},"ì":{"ha":517,"x_min":0,"x_max":0,"o":"m 517 11 b 436 92 472 11 436 47 l 436 1044 l 0 1044 l 0 1033 b 81 953 44 1033 81 997 l 81 92 b 0 11 81 47 44 11 l 0 0 l 517 0 z m 379 1389 l 138 1389 l 138 1383 b 139 1371 138 1379 139 1375 b 379 1142 167 1253 260 1164 z "},"ñ":{"ha":1033,"x_min":0,"x_max":0,"o":"m 517 11 b 436 92 472 11 436 47 l 436 1043 l 0 1043 l 0 1032 b 81 951 44 1032 81 996 l 81 92 b 0 11 81 47 44 11 l 0 0 l 517 0 z m 1033 11 b 953 92 989 11 953 47 l 953 607 b 597 1036 953 818 804 996 b 511 1043 569 1042 540 1043 l 511 1032 b 597 943 560 1032 597 992 l 597 0 l 1033 0 z m 738 1425 l 732 1425 l 726 1425 b 689 1388 726 1406 710 1388 l 474 1388 b 296 1210 375 1388 296 1308 l 296 1167 l 307 1167 b 344 1204 307 1188 324 1204 l 560 1204 b 738 1382 657 1204 738 1285 z "},"ó":{"ha":940,"x_min":0,"x_max":0,"o":"m 476 1043 l 471 1043 b 390 1036 443 1043 417 1042 b 35 608 183 994 35 819 l 35 436 b 390 7 35 226 185 47 l 390 943 b 476 1032 390 992 428 1032 z m 906 608 b 551 1036 906 818 757 996 l 551 100 b 465 11 551 51 514 11 l 465 0 l 471 0 b 551 7 497 0 525 3 b 897 349 725 43 861 172 b 906 436 903 378 906 407 z m 379 1389 l 379 1142 b 618 1371 499 1164 590 1253 b 619 1389 619 1376 619 1383 z "},"ô":{"ha":939,"x_min":0,"x_max":0,"o":"m 475 1042 l 469 1042 b 389 1035 443 1042 415 1039 b 35 607 183 993 35 818 l 35 435 b 389 7 35 226 183 47 l 389 942 b 475 1031 389 990 426 1031 z m 904 607 b 550 1035 904 817 756 994 l 550 100 b 464 11 550 51 513 11 l 464 0 l 469 0 b 550 7 497 0 524 3 b 896 349 725 43 860 172 b 904 435 901 376 904 406 z m 469 1389 l 285 1204 l 654 1204 z "},"ö":{"ha":940,"x_min":0,"x_max":0,"o":"m 476 1043 l 471 1043 b 390 1036 443 1043 417 1042 b 35 608 183 994 35 819 l 35 436 b 390 7 35 226 185 47 l 390 943 b 476 1032 390 992 428 1032 z m 906 608 b 551 1036 906 818 757 996 l 551 100 b 465 11 551 51 514 11 l 465 0 l 471 0 b 551 7 497 0 525 3 b 897 349 725 43 861 172 b 906 436 903 378 906 407 z m 433 1269 b 313 1389 433 1335 379 1389 b 193 1269 246 1389 193 1335 b 313 1149 193 1203 246 1149 b 433 1269 379 1149 433 1203 z m 749 1269 b 628 1389 749 1335 694 1389 b 508 1269 563 1389 508 1335 b 628 1149 508 1203 563 1149 b 749 1269 694 1149 749 1203 z "},"ò":{"ha":940,"x_min":0,"x_max":0,"o":"m 476 1043 l 471 1043 b 390 1036 443 1043 417 1042 b 35 608 183 994 35 819 l 35 436 b 390 7 35 226 185 47 l 390 943 b 476 1032 390 992 428 1032 z m 906 608 b 551 1036 906 818 757 996 l 551 100 b 465 11 551 51 514 11 l 465 0 l 471 0 b 551 7 497 0 525 3 b 897 349 725 43 861 172 b 906 436 903 378 906 407 z m 561 1389 l 322 1389 l 322 1383 b 322 1371 322 1379 322 1375 b 561 1142 350 1253 443 1164 z "},"õ":{"ha":939,"x_min":0,"x_max":0,"o":"m 475 1043 l 469 1043 b 389 1036 442 1043 415 1040 b 35 608 183 994 35 821 l 35 435 b 389 7 35 225 183 46 l 389 943 b 475 1032 389 992 426 1032 z m 904 608 b 550 1036 904 818 756 996 l 550 100 b 464 11 550 51 513 11 l 464 0 l 469 0 b 550 7 496 0 524 3 b 894 347 724 43 860 172 b 904 435 901 376 904 406 z m 689 1425 l 683 1425 l 679 1425 b 642 1388 679 1404 661 1388 l 426 1388 b 249 1211 329 1388 249 1308 l 249 1168 l 260 1168 b 297 1206 260 1188 276 1206 l 513 1206 b 689 1382 610 1206 689 1285 z "},"ú":{"ha":1032,"x_min":0,"x_max":0,"o":"m 522 11 b 436 100 474 11 436 51 l 436 1043 l 0 1043 l 0 1032 b 81 951 44 1032 81 996 l 81 436 b 436 7 81 225 229 47 b 522 0 464 1 493 0 z m 1032 11 b 951 92 988 11 951 47 l 951 951 b 1032 1032 951 996 988 1032 l 1032 1043 l 517 1043 l 517 1032 b 597 951 561 1032 597 996 l 597 0 l 1032 0 z m 425 1389 l 425 1142 b 664 1371 544 1164 636 1253 b 665 1389 665 1376 665 1383 z "},"û":{"ha":1031,"x_min":0,"x_max":0,"o":"m 521 11 b 435 100 472 11 435 51 l 435 1042 l 0 1042 l 0 1031 b 81 950 44 1031 81 994 l 81 435 b 435 7 81 225 229 47 b 515 0 461 3 489 0 l 521 0 z m 1031 11 b 950 92 986 11 950 47 l 950 950 b 1031 1031 950 994 986 1031 l 1031 1042 l 515 1042 l 515 1031 b 596 950 560 1031 596 994 l 596 0 l 1031 0 z m 515 1389 l 331 1204 l 700 1204 z "},"ü":{"ha":1032,"x_min":0,"x_max":0,"o":"m 522 11 b 436 100 474 11 436 51 l 436 1043 l 0 1043 l 0 1032 b 81 951 44 1032 81 996 l 81 436 b 436 7 81 225 229 47 b 517 0 463 3 489 0 l 522 0 z m 1032 11 b 951 92 988 11 951 47 l 951 951 b 1032 1032 951 996 988 1032 l 1032 1043 l 517 1043 l 517 1032 b 597 951 561 1032 597 996 l 597 0 l 1032 0 z m 479 1269 b 358 1389 479 1335 425 1389 b 239 1269 293 1389 239 1335 b 358 1149 239 1203 293 1149 b 479 1269 425 1149 479 1203 z m 794 1269 b 674 1389 794 1335 740 1389 b 554 1269 608 1389 554 1335 b 674 1149 554 1203 608 1149 b 794 1269 740 1149 794 1203 z "},"ù":{"ha":1032,"x_min":0,"x_max":0,"o":"m 522 11 b 436 100 474 11 436 51 l 436 1043 l 0 1043 l 0 1032 b 81 951 44 1032 81 996 l 81 436 b 436 7 81 225 229 47 b 522 0 464 1 493 0 z m 1032 11 b 951 92 988 11 951 47 l 951 951 b 1032 1032 951 996 988 1032 l 1032 1043 l 517 1043 l 517 1032 b 597 951 561 1032 597 996 l 597 0 l 1032 0 z m 608 1389 l 368 1389 l 368 1383 b 369 1371 368 1379 368 1375 b 608 1142 396 1253 489 1164 z "},"€":{"ha":1051,"x_min":0,"x_max":0,"o":"m 1006 386 b 906 135 1006 294 967 204 b 626 11 835 54 735 11 l 624 11 b 543 100 578 11 543 57 l 543 646 l 854 646 l 854 657 l 543 657 l 543 732 l 854 732 l 854 743 l 543 743 l 543 1289 b 624 1378 543 1332 578 1378 b 906 1254 735 1378 833 1336 b 1006 1003 967 1185 1006 1094 l 1017 1003 b 914 1261 1017 1096 976 1190 b 629 1389 840 1344 739 1388 l 624 1389 b 543 1382 596 1389 569 1386 b 288 1231 442 1361 353 1310 b 188 953 222 1153 188 1054 l 188 743 l 35 743 l 35 732 l 188 732 l 188 657 l 35 657 l 35 646 l 188 646 l 188 436 b 288 158 188 335 222 236 b 543 7 353 79 442 28 b 624 0 569 3 596 0 b 914 128 736 0 839 43 b 1017 386 976 199 1017 293 z "}}}
